<svg width="512" height="512" viewBox="0 0 512 512" fill="none" xmlns="http://www.w3.org/2000/svg">
<rect width="512" height="512" rx="150" fill="#B7271A"/>
<g clip-path="url(#clip0_58_272)">
<path d="M403.005 207.27C439.448 207.27 468.99 177.754 468.99 141.343C468.99 104.932 439.448 75.4153 403.005 75.4153C366.563 75.4153 337.021 104.932 337.021 141.343C337.021 177.754 366.563 207.27 403.005 207.27Z" fill="#22166B"/>
<path d="M403.005 207.27C439.448 207.27 468.99 177.754 468.99 141.343C468.99 104.932 439.448 75.4153 403.005 75.4153C366.563 75.4153 337.021 104.932 337.021 141.343C337.021 177.754 366.563 207.27 403.005 207.27Z" fill="#F2EAE9"/>
<path d="M104.183 147.091H161.559V177.295H162.881C175.132 156.777 196.989 141.015 228.101 141.015C256.569 141.015 279.308 156.777 290.237 180.377H291.118C306.454 155.897 330.074 141.015 358.542 141.015C405.782 141.015 432.488 171.659 432.488 220.62V371.554H372.908V230.659C372.908 205.298 360.216 192.177 338.359 192.177C313.416 192.177 298.081 211.462 298.081 241.138V371.466H238.501V230.571C238.501 205.21 225.81 192.089 203.952 192.089C179.891 192.089 163.674 211.374 163.674 241.05V371.378H104.095V147.003L104.183 147.091Z" fill="#22166B"/>
<path d="M104.183 147.091H161.559V177.295H162.881C175.132 156.777 196.989 141.015 228.101 141.015C256.569 141.015 279.308 156.777 290.237 180.377H291.118C306.454 155.897 330.074 141.015 358.542 141.015C405.782 141.015 432.488 171.659 432.488 220.62V371.554H372.908V230.659C372.908 205.298 360.216 192.177 338.359 192.177C313.416 192.177 298.081 211.462 298.081 241.138V371.466H238.501V230.571C238.501 205.21 225.81 192.089 203.952 192.089C179.891 192.089 163.674 211.374 163.674 241.05V371.378H104.095V147.003L104.183 147.091Z" fill="#F2EAE9"/>
<path d="M103.631 435.993C136.786 435.993 163.663 409.139 163.663 376.013C163.663 342.888 136.786 316.034 103.631 316.034C70.4767 316.034 43.5996 342.888 43.5996 376.013C43.5996 409.139 70.4767 435.993 103.631 435.993Z" fill="#22166B"/>
<path d="M103.631 435.993C136.786 435.993 163.663 409.139 163.663 376.013C163.663 342.888 136.786 316.034 103.631 316.034C70.4767 316.034 43.5996 342.888 43.5996 376.013C43.5996 409.139 70.4767 435.993 103.631 435.993Z" fill="#F2EAE9"/>
</g>
<defs>
<clipPath id="clip0_58_272">
<rect width="425.39" height="360.58" fill="white" transform="translate(43.5996 75.4153)"/>
</clipPath>
</defs>
</svg>
