<svg width="606" height="514" viewBox="0 0 606 514" fill="none" xmlns="http://www.w3.org/2000/svg">
<path d="M512 187.957C563.915 187.957 606 145.882 606 93.9786C606 42.0757 563.915 0 512 0C460.085 0 418 42.0757 418 93.9786C418 145.882 460.085 187.957 512 187.957Z" fill="#22166B"/>
<path d="M512 187.957C563.915 187.957 606 145.882 606 93.9786C606 42.0757 563.915 0 512 0C460.085 0 418 42.0757 418 93.9786C418 145.882 460.085 187.957 512 187.957Z" fill="#B7271A"/>
<path d="M86.3052 102.172H168.042V145.228H169.925C187.377 115.98 218.515 93.5107 262.836 93.5107C303.391 93.5107 335.784 115.98 351.353 149.621H352.609C374.455 114.725 408.104 93.5107 448.659 93.5107C515.956 93.5107 554 137.194 554 206.987V422.14H469.124V221.297C469.124 185.145 451.044 166.442 419.906 166.442C384.374 166.442 362.527 193.932 362.527 236.235V422.015H277.652V221.172C277.652 185.02 259.572 166.316 228.434 166.316C194.157 166.316 171.055 193.807 171.055 236.109V421.889H86.1797V102.047L86.3052 102.172Z" fill="#22166B"/>
<path d="M86.3052 102.172H168.042V145.228H169.925C187.377 115.98 218.515 93.5107 262.836 93.5107C303.391 93.5107 335.784 115.98 351.353 149.621H352.609C374.455 114.725 408.104 93.5107 448.659 93.5107C515.956 93.5107 554 137.194 554 206.987V422.14H469.124V221.297C469.124 185.145 451.044 166.442 419.906 166.442C384.374 166.442 362.527 193.932 362.527 236.235V422.015H277.652V221.172C277.652 185.02 259.572 166.316 228.434 166.316C194.157 166.316 171.055 193.807 171.055 236.109V421.889H86.1797V102.047L86.3052 102.172Z" fill="#B7271A"/>
<path d="M85.5195 513.997C132.751 513.997 171.039 475.717 171.039 428.497C171.039 381.277 132.751 342.997 85.5195 342.997C38.2884 342.997 0 381.277 0 428.497C0 475.717 38.2884 513.997 85.5195 513.997Z" fill="#22166B"/>
<path d="M85.5195 513.997C132.751 513.997 171.039 475.717 171.039 428.497C171.039 381.277 132.751 342.997 85.5195 342.997C38.2884 342.997 0 381.277 0 428.497C0 475.717 38.2884 513.997 85.5195 513.997Z" fill="#B7271A"/>
</svg>
