<svg width="202" height="198" viewBox="0 0 202 198" fill="none" xmlns="http://www.w3.org/2000/svg">
<path d="M97.6106 40.8749C98.0114 40.0914 99.1148 40.0478 99.5762 40.7972L109.602 57.082C109.943 57.6352 110.679 57.7873 111.211 57.4143L127.442 46.0319C128.174 45.5187 129.184 46.0197 129.218 46.913L129.924 65.5219C129.949 66.1961 130.557 66.6974 131.224 66.5943L151.099 63.5225C152.011 63.3816 152.697 64.3347 152.275 65.1547L143.678 81.8352C143.355 82.4602 143.677 83.2244 144.349 83.4309L163.232 89.2323C164.131 89.5085 164.317 90.6989 163.545 91.2368L147.619 102.337C147.037 102.743 146.97 103.58 147.48 104.074L161.18 117.32C161.852 117.969 161.489 119.106 160.565 119.247L140.787 122.247C140.104 122.351 139.674 123.037 139.878 123.697L145.381 141.472C145.65 142.339 144.836 143.153 143.969 142.883L124.822 136.942C124.192 136.746 123.529 137.131 123.386 137.776L119.318 156.139C119.127 157.002 118.063 157.32 117.429 156.704L103.457 143.114C102.994 142.664 102.248 142.693 101.822 143.179L88.9672 157.83C88.3844 158.494 87.2987 158.261 87.04 157.416L81.5344 139.431C81.3411 138.8 80.6498 138.468 80.0368 138.713L61.4193 146.148C60.576 146.485 59.7006 145.739 59.8998 144.853L63.9819 126.699C64.1333 126.025 63.65 125.375 62.9615 125.325L43.0077 123.896C42.0759 123.829 41.6241 122.724 42.2423 122.024L54.8536 107.737C55.3237 107.204 55.1907 106.375 54.5777 106.016L37.8248 96.2091C37.0131 95.7339 37.1049 94.5325 37.9793 94.1861L56.3445 86.9115C56.9982 86.6526 57.2585 85.8654 56.8881 85.2678L47.0005 69.3184C46.5144 68.5343 47.1234 67.53 48.0433 67.5985L68.0992 69.091C68.7721 69.141 69.3382 68.5934 69.3104 67.9192L68.5447 49.3127C68.508 48.4195 69.475 47.8403 70.2451 48.2941L87.3246 58.359C87.8844 58.6889 88.6063 58.4791 88.9022 57.9007L97.6106 40.8749Z" fill="#22166B"/>
</svg>
