<svg width="35" height="36" viewBox="0 0 35 36" fill="none" xmlns="http://www.w3.org/2000/svg">
<g id="9645877501606988091 1">
<g id="Email">
<path id="Vector" d="M27.3437 4.7395H7.65625C6.20584 4.7395 4.81485 5.31567 3.78926 6.34126C2.76367 7.36685 2.1875 8.75785 2.1875 10.2082V25.5207C2.1875 26.9711 2.76367 28.3621 3.78926 29.3877C4.81485 30.4133 6.20584 30.9895 7.65625 30.9895H27.3437C28.7941 30.9895 30.1851 30.4133 31.2107 29.3877C32.2363 28.3621 32.8125 26.9711 32.8125 25.5207V10.2082C32.8125 8.75785 32.2363 7.36685 31.2107 6.34126C30.1851 5.31567 28.7941 4.7395 27.3437 4.7395ZM7.65625 6.927H27.3437C27.855 6.92954 28.3586 7.05151 28.8143 7.28319C29.2701 7.51486 29.6654 7.84983 29.9687 8.26137C29.9687 8.26137 29.9687 8.26137 29.8812 8.26137L19.6875 17.6348C19.082 18.1913 18.2896 18.5001 17.4672 18.5001C16.6448 18.5001 15.8524 18.1913 15.2469 17.6348L5.11875 8.30512H5.03125C5.32993 7.88551 5.72319 7.5421 6.17922 7.30268C6.63525 7.06327 7.14124 6.93457 7.65625 6.927ZM27.3437 28.802H7.65625C6.78601 28.802 5.95141 28.4563 5.33605 27.8409C4.7207 27.2256 4.375 26.391 4.375 25.5207V10.602L13.8031 19.2426C14.8119 20.168 16.1311 20.6814 17.5 20.6814C18.8689 20.6814 20.1881 20.168 21.1969 19.2426L30.625 10.602V25.5207C30.625 26.391 30.2793 27.2256 29.6639 27.8409C29.0486 28.4563 28.214 28.802 27.3437 28.802Z" fill="#F2EAE9"/>
</g>
</g>
</svg>
