<svg width="58" height="57" viewBox="0 0 58 57" fill="none" xmlns="http://www.w3.org/2000/svg">
<path d="M28.0279 11.7183C28.1428 11.4937 28.4592 11.4812 28.5914 11.696L31.4657 16.3647C31.5634 16.5233 31.7745 16.5669 31.927 16.46L36.5803 13.1968C36.7901 13.0496 37.0796 13.1933 37.0893 13.4494L37.2918 18.7843C37.2991 18.9776 37.4733 19.1213 37.6645 19.0918L43.3625 18.2111C43.6238 18.1707 43.8206 18.444 43.6995 18.6791L41.2348 23.4612C41.1424 23.6403 41.2347 23.8594 41.4273 23.9186L46.8407 25.5818C47.0985 25.661 47.1519 26.0023 46.9307 26.1565L42.3649 29.3386C42.1978 29.4551 42.1786 29.6951 42.325 29.8366L46.2527 33.6341C46.4452 33.8203 46.3411 34.1464 46.0763 34.1866L40.406 35.0468C40.2104 35.0765 40.087 35.2733 40.1455 35.4624L41.7232 40.5583C41.8002 40.807 41.5669 41.0401 41.3183 40.963L35.8292 39.2596C35.6484 39.2035 35.4583 39.3138 35.4174 39.4986L34.2512 44.7632C34.1964 45.0106 33.8914 45.1018 33.7097 44.9252L29.7041 41.0291C29.5714 40.8999 29.3575 40.9084 29.2354 41.0476L25.55 45.2479C25.3829 45.4383 25.0716 45.3715 24.9975 45.1292L23.4191 39.9731C23.3637 39.7922 23.1655 39.6972 22.9897 39.7674L17.6523 41.899C17.4106 41.9955 17.1596 41.7815 17.2167 41.5276L18.387 36.3229C18.4304 36.1299 18.2918 35.9434 18.0945 35.9293L12.3739 35.5195C12.1068 35.5004 11.9773 35.1835 12.1545 34.9827L15.77 30.8869C15.9048 30.7342 15.8667 30.4965 15.6909 30.3936L10.8881 27.582C10.6554 27.4457 10.6817 27.1013 10.9324 27.002L16.1974 24.9165C16.3848 24.8422 16.4595 24.6166 16.3533 24.4452L13.5186 19.8727C13.3793 19.6479 13.5539 19.36 13.8176 19.3796L19.5674 19.8075C19.7603 19.8219 19.9226 19.6649 19.9146 19.4716L19.6951 14.1373C19.6846 13.8813 19.9618 13.7152 20.1826 13.8453L25.0791 16.7308C25.2395 16.8254 25.4465 16.7652 25.5313 16.5994L28.0279 11.7183Z" fill="#B7271A"/>
</svg>
