<svg width="1903" height="26" viewBox="0 0 1903 26" fill="none" xmlns="http://www.w3.org/2000/svg">
<path d="M1496.76 5.3435C1496.81 5.24108 1496.96 5.23537 1497.02 5.33334L1498.33 7.46221C1498.37 7.53453 1498.47 7.55441 1498.54 7.50565L1500.66 6.01766C1500.76 5.95057 1500.89 6.01607 1500.89 6.13285L1500.98 8.56554C1500.99 8.65368 1501.07 8.7192 1501.15 8.70573L1503.75 8.30416C1503.87 8.28574 1503.96 8.41034 1503.91 8.51753L1502.78 10.6981C1502.74 10.7798 1502.78 10.8797 1502.87 10.9067L1505.34 11.6651C1505.46 11.7012 1505.48 11.8569 1505.38 11.9272L1503.3 13.3782C1503.22 13.4313 1503.21 13.5407 1503.28 13.6053L1505.07 15.3369C1505.16 15.4218 1505.11 15.5705 1504.99 15.5888L1502.4 15.9811C1502.32 15.9946 1502.26 16.0844 1502.29 16.1706L1503.01 18.4943C1503.04 18.6077 1502.93 18.714 1502.82 18.6788L1500.32 17.9021C1500.24 17.8765 1500.15 17.9268 1500.13 18.0111L1499.6 20.4117C1499.57 20.5245 1499.43 20.5661 1499.35 20.4855L1497.53 18.709C1497.46 18.6501 1497.37 18.6539 1497.31 18.7174L1495.63 20.6327C1495.55 20.7195 1495.41 20.6891 1495.38 20.5786L1494.66 18.2275C1494.63 18.1449 1494.54 18.1016 1494.46 18.1336L1492.03 19.1056C1491.92 19.1496 1491.8 19.0521 1491.83 18.9363L1492.36 16.563C1492.38 16.475 1492.32 16.3899 1492.23 16.3835L1489.62 16.1966C1489.5 16.1879 1489.44 16.0434 1489.52 15.9519L1491.17 14.0842C1491.23 14.0146 1491.22 13.9062 1491.14 13.8593L1488.95 12.5772C1488.84 12.5151 1488.85 12.358 1488.97 12.3127L1491.37 11.3617C1491.45 11.3279 1491.49 11.225 1491.44 11.1469L1490.14 9.06184C1490.08 8.95934 1490.16 8.82805 1490.28 8.837L1492.9 9.03211C1492.99 9.03865 1493.06 8.96706 1493.06 8.87893L1492.96 6.44655C1492.96 6.32978 1493.08 6.25406 1493.18 6.31339L1495.42 7.62915C1495.49 7.67227 1495.58 7.64485 1495.62 7.56923L1496.76 5.3435Z" fill="#F2EAE9"/>
<path d="M1529.36 10.8172C1530.82 10.8172 1532 9.63682 1532 8.1808C1532 6.72477 1530.82 5.54443 1529.36 5.54443C1527.91 5.54443 1526.73 6.72477 1526.73 8.1808C1526.73 9.63682 1527.91 10.8172 1529.36 10.8172Z" fill="#F2EAE9"/>
<path d="M1517.42 8.4107H1519.71V9.61853H1519.77C1520.26 8.79805 1521.13 8.16772 1522.37 8.16772C1523.51 8.16772 1524.42 8.79805 1524.86 9.74178H1524.89C1525.5 8.76284 1526.45 8.16772 1527.59 8.16772C1529.47 8.16772 1530.54 9.39317 1530.54 11.3511V17.3867H1528.16V11.7525C1528.16 10.7383 1527.65 10.2136 1526.78 10.2136C1525.78 10.2136 1525.17 10.9848 1525.17 12.1715V17.3832H1522.79V11.749C1522.79 10.7348 1522.28 10.2101 1521.41 10.2101C1520.45 10.2101 1519.8 10.9813 1519.8 12.168V17.3797H1517.42V8.40718L1517.42 8.4107Z" fill="#F2EAE9"/>
<path d="M1517.4 19.9635C1518.72 19.9635 1519.8 18.8897 1519.8 17.565C1519.8 16.2404 1518.72 15.1665 1517.4 15.1665C1516.07 15.1665 1515 16.2404 1515 17.565C1515 18.8897 1516.07 19.9635 1517.4 19.9635Z" fill="#F2EAE9"/>
<path d="M1549.76 5.3435C1549.81 5.24108 1549.96 5.23537 1550.02 5.33334L1551.33 7.46221C1551.37 7.53453 1551.47 7.55441 1551.54 7.50565L1553.66 6.01766C1553.76 5.95057 1553.89 6.01607 1553.89 6.13285L1553.98 8.56554C1553.99 8.65368 1554.07 8.7192 1554.15 8.70573L1556.75 8.30416C1556.87 8.28574 1556.96 8.41034 1556.91 8.51753L1555.78 10.6981C1555.74 10.7798 1555.78 10.8797 1555.87 10.9067L1558.34 11.6651C1558.46 11.7012 1558.48 11.8569 1558.38 11.9272L1556.3 13.3782C1556.22 13.4313 1556.21 13.5407 1556.28 13.6053L1558.07 15.3369C1558.16 15.4218 1558.11 15.5705 1557.99 15.5888L1555.4 15.9811C1555.32 15.9946 1555.26 16.0844 1555.29 16.1706L1556.01 18.4943C1556.04 18.6077 1555.93 18.714 1555.82 18.6788L1553.32 17.9021C1553.24 17.8765 1553.15 17.9268 1553.13 18.0111L1552.6 20.4117C1552.57 20.5245 1552.43 20.5661 1552.35 20.4855L1550.53 18.709C1550.46 18.6501 1550.37 18.6539 1550.31 18.7174L1548.63 20.6327C1548.55 20.7195 1548.41 20.6891 1548.38 20.5786L1547.66 18.2275C1547.63 18.1449 1547.54 18.1016 1547.46 18.1336L1545.03 19.1056C1544.92 19.1496 1544.8 19.0521 1544.83 18.9363L1545.36 16.563C1545.38 16.475 1545.32 16.3899 1545.23 16.3835L1542.62 16.1966C1542.5 16.1879 1542.44 16.0434 1542.52 15.9519L1544.17 14.0842C1544.23 14.0146 1544.22 13.9062 1544.14 13.8593L1541.95 12.5772C1541.84 12.5151 1541.85 12.358 1541.97 12.3127L1544.37 11.3617C1544.45 11.3279 1544.49 11.225 1544.44 11.1469L1543.14 9.06184C1543.08 8.95934 1543.16 8.82805 1543.28 8.837L1545.9 9.03211C1545.99 9.03865 1546.06 8.96706 1546.06 8.87893L1545.96 6.44655C1545.96 6.32978 1546.08 6.25406 1546.18 6.31339L1548.42 7.62915C1548.49 7.67227 1548.58 7.64485 1548.62 7.56923L1549.76 5.3435Z" fill="#F2EAE9"/>
<path d="M1582.36 10.8172C1583.82 10.8172 1585 9.63682 1585 8.1808C1585 6.72477 1583.82 5.54443 1582.36 5.54443C1580.91 5.54443 1579.73 6.72477 1579.73 8.1808C1579.73 9.63682 1580.91 10.8172 1582.36 10.8172Z" fill="#F2EAE9"/>
<path d="M1570.42 8.4107H1572.71V9.61853H1572.77C1573.26 8.79805 1574.13 8.16772 1575.37 8.16772C1576.51 8.16772 1577.42 8.79805 1577.86 9.74178H1577.89C1578.5 8.76284 1579.45 8.16772 1580.59 8.16772C1582.47 8.16772 1583.54 9.39317 1583.54 11.3511V17.3867H1581.16V11.7525C1581.16 10.7383 1580.65 10.2136 1579.78 10.2136C1578.78 10.2136 1578.17 10.9848 1578.17 12.1715V17.3832H1575.79V11.749C1575.79 10.7348 1575.28 10.2101 1574.41 10.2101C1573.45 10.2101 1572.8 10.9813 1572.8 12.168V17.3797H1570.42V8.40718L1570.42 8.4107Z" fill="#F2EAE9"/>
<path d="M1570.4 19.9635C1571.72 19.9635 1572.8 18.8897 1572.8 17.565C1572.8 16.2404 1571.72 15.1665 1570.4 15.1665C1569.07 15.1665 1568 16.2404 1568 17.565C1568 18.8897 1569.07 19.9635 1570.4 19.9635Z" fill="#F2EAE9"/>
<path d="M1602.76 5.3435C1602.81 5.24108 1602.96 5.23537 1603.02 5.33334L1604.33 7.46221C1604.37 7.53453 1604.47 7.55441 1604.54 7.50565L1606.66 6.01766C1606.76 5.95057 1606.89 6.01607 1606.89 6.13285L1606.98 8.56554C1606.99 8.65368 1607.07 8.7192 1607.15 8.70573L1609.75 8.30416C1609.87 8.28574 1609.96 8.41034 1609.91 8.51753L1608.78 10.6981C1608.74 10.7798 1608.78 10.8797 1608.87 10.9067L1611.34 11.6651C1611.46 11.7012 1611.48 11.8569 1611.38 11.9272L1609.3 13.3782C1609.22 13.4313 1609.21 13.5407 1609.28 13.6053L1611.07 15.3369C1611.16 15.4218 1611.11 15.5705 1610.99 15.5888L1608.4 15.9811C1608.32 15.9946 1608.26 16.0844 1608.29 16.1706L1609.01 18.4943C1609.04 18.6077 1608.93 18.714 1608.82 18.6788L1606.32 17.9021C1606.24 17.8765 1606.15 17.9268 1606.13 18.0111L1605.6 20.4117C1605.57 20.5245 1605.43 20.5661 1605.35 20.4855L1603.53 18.709C1603.46 18.6501 1603.37 18.6539 1603.31 18.7174L1601.63 20.6327C1601.55 20.7195 1601.41 20.6891 1601.38 20.5786L1600.66 18.2275C1600.63 18.1449 1600.54 18.1016 1600.46 18.1336L1598.03 19.1056C1597.92 19.1496 1597.8 19.0521 1597.83 18.9363L1598.36 16.563C1598.38 16.475 1598.32 16.3899 1598.23 16.3835L1595.62 16.1966C1595.5 16.1879 1595.44 16.0434 1595.52 15.9519L1597.17 14.0842C1597.23 14.0146 1597.22 13.9062 1597.14 13.8593L1594.95 12.5772C1594.84 12.5151 1594.85 12.358 1594.97 12.3127L1597.37 11.3617C1597.45 11.3279 1597.49 11.225 1597.44 11.1469L1596.14 9.06184C1596.08 8.95934 1596.16 8.82805 1596.28 8.837L1598.9 9.03211C1598.99 9.03865 1599.06 8.96706 1599.06 8.87893L1598.96 6.44655C1598.96 6.32978 1599.08 6.25406 1599.18 6.31339L1601.42 7.62915C1601.49 7.67227 1601.58 7.64485 1601.62 7.56923L1602.76 5.3435Z" fill="#F2EAE9"/>
<path d="M1635.36 10.8172C1636.82 10.8172 1638 9.63682 1638 8.1808C1638 6.72477 1636.82 5.54443 1635.36 5.54443C1633.91 5.54443 1632.73 6.72477 1632.73 8.1808C1632.73 9.63682 1633.91 10.8172 1635.36 10.8172Z" fill="#F2EAE9"/>
<path d="M1623.42 8.4107H1625.71V9.61853H1625.77C1626.26 8.79805 1627.13 8.16772 1628.37 8.16772C1629.51 8.16772 1630.42 8.79805 1630.86 9.74178H1630.89C1631.5 8.76284 1632.45 8.16772 1633.59 8.16772C1635.47 8.16772 1636.54 9.39317 1636.54 11.3511V17.3867H1634.16V11.7525C1634.16 10.7383 1633.65 10.2136 1632.78 10.2136C1631.78 10.2136 1631.17 10.9848 1631.17 12.1715V17.3832H1628.79V11.749C1628.79 10.7348 1628.28 10.2101 1627.41 10.2101C1626.45 10.2101 1625.8 10.9813 1625.8 12.168V17.3797H1623.42V8.40718L1623.42 8.4107Z" fill="#F2EAE9"/>
<path d="M1623.4 19.9635C1624.72 19.9635 1625.8 18.8897 1625.8 17.565C1625.8 16.2404 1624.72 15.1665 1623.4 15.1665C1622.07 15.1665 1621 16.2404 1621 17.565C1621 18.8897 1622.07 19.9635 1623.4 19.9635Z" fill="#F2EAE9"/>
<path d="M1655.76 5.3435C1655.81 5.24108 1655.96 5.23537 1656.02 5.33334L1657.33 7.46221C1657.37 7.53453 1657.47 7.55441 1657.54 7.50565L1659.66 6.01766C1659.76 5.95057 1659.89 6.01607 1659.89 6.13285L1659.98 8.56554C1659.99 8.65368 1660.07 8.7192 1660.15 8.70573L1662.75 8.30416C1662.87 8.28574 1662.96 8.41034 1662.91 8.51753L1661.78 10.6981C1661.74 10.7798 1661.78 10.8797 1661.87 10.9067L1664.34 11.6651C1664.46 11.7012 1664.48 11.8569 1664.38 11.9272L1662.3 13.3782C1662.22 13.4313 1662.21 13.5407 1662.28 13.6053L1664.07 15.3369C1664.16 15.4218 1664.11 15.5705 1663.99 15.5888L1661.4 15.9811C1661.32 15.9946 1661.26 16.0844 1661.29 16.1706L1662.01 18.4943C1662.04 18.6077 1661.93 18.714 1661.82 18.6788L1659.32 17.9021C1659.24 17.8765 1659.15 17.9268 1659.13 18.0111L1658.6 20.4117C1658.57 20.5245 1658.43 20.5661 1658.35 20.4855L1656.53 18.709C1656.46 18.6501 1656.37 18.6539 1656.31 18.7174L1654.63 20.6327C1654.55 20.7195 1654.41 20.6891 1654.38 20.5786L1653.66 18.2275C1653.63 18.1449 1653.54 18.1016 1653.46 18.1336L1651.03 19.1056C1650.92 19.1496 1650.8 19.0521 1650.83 18.9363L1651.36 16.563C1651.38 16.475 1651.32 16.3899 1651.23 16.3835L1648.62 16.1966C1648.5 16.1879 1648.44 16.0434 1648.52 15.9519L1650.17 14.0842C1650.23 14.0146 1650.22 13.9062 1650.14 13.8593L1647.95 12.5772C1647.84 12.5151 1647.85 12.358 1647.97 12.3127L1650.37 11.3617C1650.45 11.3279 1650.49 11.225 1650.44 11.1469L1649.14 9.06184C1649.08 8.95934 1649.16 8.82805 1649.28 8.837L1651.9 9.03211C1651.99 9.03865 1652.06 8.96706 1652.06 8.87893L1651.96 6.44655C1651.96 6.32978 1652.08 6.25406 1652.18 6.31339L1654.42 7.62915C1654.49 7.67227 1654.58 7.64485 1654.62 7.56923L1655.76 5.3435Z" fill="#F2EAE9"/>
<path d="M1688.36 10.8172C1689.82 10.8172 1691 9.63682 1691 8.1808C1691 6.72477 1689.82 5.54443 1688.36 5.54443C1686.91 5.54443 1685.73 6.72477 1685.73 8.1808C1685.73 9.63682 1686.91 10.8172 1688.36 10.8172Z" fill="#F2EAE9"/>
<path d="M1676.42 8.4107H1678.71V9.61853H1678.77C1679.26 8.79805 1680.13 8.16772 1681.37 8.16772C1682.51 8.16772 1683.42 8.79805 1683.86 9.74178H1683.89C1684.5 8.76284 1685.45 8.16772 1686.59 8.16772C1688.47 8.16772 1689.54 9.39317 1689.54 11.3511V17.3867H1687.16V11.7525C1687.16 10.7383 1686.65 10.2136 1685.78 10.2136C1684.78 10.2136 1684.17 10.9848 1684.17 12.1715V17.3832H1681.79V11.749C1681.79 10.7348 1681.28 10.2101 1680.41 10.2101C1679.45 10.2101 1678.8 10.9813 1678.8 12.168V17.3797H1676.42V8.40718L1676.42 8.4107Z" fill="#F2EAE9"/>
<path d="M1676.4 19.9635C1677.72 19.9635 1678.8 18.8897 1678.8 17.565C1678.8 16.2404 1677.72 15.1665 1676.4 15.1665C1675.07 15.1665 1674 16.2404 1674 17.565C1674 18.8897 1675.07 19.9635 1676.4 19.9635Z" fill="#F2EAE9"/>
<path d="M1708.76 5.3435C1708.81 5.24108 1708.96 5.23537 1709.02 5.33334L1710.33 7.46221C1710.37 7.53453 1710.47 7.55441 1710.54 7.50565L1712.66 6.01766C1712.76 5.95057 1712.89 6.01607 1712.89 6.13285L1712.98 8.56554C1712.99 8.65368 1713.07 8.7192 1713.15 8.70573L1715.75 8.30416C1715.87 8.28574 1715.96 8.41034 1715.91 8.51753L1714.78 10.6981C1714.74 10.7798 1714.78 10.8797 1714.87 10.9067L1717.34 11.6651C1717.46 11.7012 1717.48 11.8569 1717.38 11.9272L1715.3 13.3782C1715.22 13.4313 1715.21 13.5407 1715.28 13.6053L1717.07 15.3369C1717.16 15.4218 1717.11 15.5705 1716.99 15.5888L1714.4 15.9811C1714.32 15.9946 1714.26 16.0844 1714.29 16.1706L1715.01 18.4943C1715.04 18.6077 1714.93 18.714 1714.82 18.6788L1712.32 17.9021C1712.24 17.8765 1712.15 17.9268 1712.13 18.0111L1711.6 20.4117C1711.57 20.5245 1711.43 20.5661 1711.35 20.4855L1709.53 18.709C1709.46 18.6501 1709.37 18.6539 1709.31 18.7174L1707.63 20.6327C1707.55 20.7195 1707.41 20.6891 1707.38 20.5786L1706.66 18.2275C1706.63 18.1449 1706.54 18.1016 1706.46 18.1336L1704.03 19.1056C1703.92 19.1496 1703.8 19.0521 1703.83 18.9363L1704.36 16.563C1704.38 16.475 1704.32 16.3899 1704.23 16.3835L1701.62 16.1966C1701.5 16.1879 1701.44 16.0434 1701.52 15.9519L1703.17 14.0842C1703.23 14.0146 1703.22 13.9062 1703.14 13.8593L1700.95 12.5772C1700.84 12.5151 1700.85 12.358 1700.97 12.3127L1703.37 11.3617C1703.45 11.3279 1703.49 11.225 1703.44 11.1469L1702.14 9.06184C1702.08 8.95934 1702.16 8.82805 1702.28 8.837L1704.9 9.03211C1704.99 9.03865 1705.06 8.96706 1705.06 8.87893L1704.96 6.44655C1704.96 6.32978 1705.08 6.25406 1705.18 6.31339L1707.42 7.62915C1707.49 7.67227 1707.58 7.64485 1707.62 7.56923L1708.76 5.3435Z" fill="#F2EAE9"/>
<path d="M1741.36 10.8172C1742.82 10.8172 1744 9.63682 1744 8.1808C1744 6.72477 1742.82 5.54443 1741.36 5.54443C1739.91 5.54443 1738.73 6.72477 1738.73 8.1808C1738.73 9.63682 1739.91 10.8172 1741.36 10.8172Z" fill="#F2EAE9"/>
<path d="M1729.42 8.4107H1731.71V9.61853H1731.77C1732.26 8.79805 1733.13 8.16772 1734.37 8.16772C1735.51 8.16772 1736.42 8.79805 1736.86 9.74178H1736.89C1737.5 8.76284 1738.45 8.16772 1739.59 8.16772C1741.47 8.16772 1742.54 9.39317 1742.54 11.3511V17.3867H1740.16V11.7525C1740.16 10.7383 1739.65 10.2136 1738.78 10.2136C1737.78 10.2136 1737.17 10.9848 1737.17 12.1715V17.3832H1734.79V11.749C1734.79 10.7348 1734.28 10.2101 1733.41 10.2101C1732.45 10.2101 1731.8 10.9813 1731.8 12.168V17.3797H1729.42V8.40718L1729.42 8.4107Z" fill="#F2EAE9"/>
<path d="M1729.4 19.9635C1730.72 19.9635 1731.8 18.8897 1731.8 17.565C1731.8 16.2404 1730.72 15.1665 1729.4 15.1665C1728.07 15.1665 1727 16.2404 1727 17.565C1727 18.8897 1728.07 19.9635 1729.4 19.9635Z" fill="#F2EAE9"/>
<path d="M1761.76 5.3435C1761.81 5.24108 1761.96 5.23537 1762.02 5.33334L1763.33 7.46221C1763.37 7.53453 1763.47 7.55441 1763.54 7.50565L1765.66 6.01766C1765.76 5.95057 1765.89 6.01607 1765.89 6.13285L1765.98 8.56554C1765.99 8.65368 1766.07 8.7192 1766.15 8.70573L1768.75 8.30416C1768.87 8.28574 1768.96 8.41034 1768.91 8.51753L1767.78 10.6981C1767.74 10.7798 1767.78 10.8797 1767.87 10.9067L1770.34 11.6651C1770.46 11.7012 1770.48 11.8569 1770.38 11.9272L1768.3 13.3782C1768.22 13.4313 1768.21 13.5407 1768.28 13.6053L1770.07 15.3369C1770.16 15.4218 1770.11 15.5705 1769.99 15.5888L1767.4 15.9811C1767.32 15.9946 1767.26 16.0844 1767.29 16.1706L1768.01 18.4943C1768.04 18.6077 1767.93 18.714 1767.82 18.6788L1765.32 17.9021C1765.24 17.8765 1765.15 17.9268 1765.13 18.0111L1764.6 20.4117C1764.57 20.5245 1764.43 20.5661 1764.35 20.4855L1762.53 18.709C1762.46 18.6501 1762.37 18.6539 1762.31 18.7174L1760.63 20.6327C1760.55 20.7195 1760.41 20.6891 1760.38 20.5786L1759.66 18.2275C1759.63 18.1449 1759.54 18.1016 1759.46 18.1336L1757.03 19.1056C1756.92 19.1496 1756.8 19.0521 1756.83 18.9363L1757.36 16.563C1757.38 16.475 1757.32 16.3899 1757.23 16.3835L1754.62 16.1966C1754.5 16.1879 1754.44 16.0434 1754.52 15.9519L1756.17 14.0842C1756.23 14.0146 1756.22 13.9062 1756.14 13.8593L1753.95 12.5772C1753.84 12.5151 1753.85 12.358 1753.97 12.3127L1756.37 11.3617C1756.45 11.3279 1756.49 11.225 1756.44 11.1469L1755.14 9.06184C1755.08 8.95934 1755.16 8.82805 1755.28 8.837L1757.9 9.03211C1757.99 9.03865 1758.06 8.96706 1758.06 8.87893L1757.96 6.44655C1757.96 6.32978 1758.08 6.25406 1758.18 6.31339L1760.42 7.62915C1760.49 7.67227 1760.58 7.64485 1760.62 7.56923L1761.76 5.3435Z" fill="#F2EAE9"/>
<path d="M1794.36 10.8172C1795.82 10.8172 1797 9.63682 1797 8.1808C1797 6.72477 1795.82 5.54443 1794.36 5.54443C1792.91 5.54443 1791.73 6.72477 1791.73 8.1808C1791.73 9.63682 1792.91 10.8172 1794.36 10.8172Z" fill="#F2EAE9"/>
<path d="M1782.42 8.4107H1784.71V9.61853H1784.77C1785.26 8.79805 1786.13 8.16772 1787.37 8.16772C1788.51 8.16772 1789.42 8.79805 1789.86 9.74178H1789.89C1790.5 8.76284 1791.45 8.16772 1792.59 8.16772C1794.47 8.16772 1795.54 9.39317 1795.54 11.3511V17.3867H1793.16V11.7525C1793.16 10.7383 1792.65 10.2136 1791.78 10.2136C1790.78 10.2136 1790.17 10.9848 1790.17 12.1715V17.3832H1787.79V11.749C1787.79 10.7348 1787.28 10.2101 1786.41 10.2101C1785.45 10.2101 1784.8 10.9813 1784.8 12.168V17.3797H1782.42V8.40718L1782.42 8.4107Z" fill="#F2EAE9"/>
<path d="M1782.4 19.9635C1783.72 19.9635 1784.8 18.8897 1784.8 17.565C1784.8 16.2404 1783.72 15.1665 1782.4 15.1665C1781.07 15.1665 1780 16.2404 1780 17.565C1780 18.8897 1781.07 19.9635 1782.4 19.9635Z" fill="#F2EAE9"/>
<path d="M1814.76 5.3435C1814.81 5.24108 1814.96 5.23537 1815.02 5.33334L1816.33 7.46221C1816.37 7.53453 1816.47 7.55441 1816.54 7.50565L1818.66 6.01766C1818.76 5.95057 1818.89 6.01607 1818.89 6.13285L1818.98 8.56554C1818.99 8.65368 1819.07 8.7192 1819.15 8.70573L1821.75 8.30416C1821.87 8.28574 1821.96 8.41034 1821.91 8.51753L1820.78 10.6981C1820.74 10.7798 1820.78 10.8797 1820.87 10.9067L1823.34 11.6651C1823.46 11.7012 1823.48 11.8569 1823.38 11.9272L1821.3 13.3782C1821.22 13.4313 1821.21 13.5407 1821.28 13.6053L1823.07 15.3369C1823.16 15.4218 1823.11 15.5705 1822.99 15.5888L1820.4 15.9811C1820.32 15.9946 1820.26 16.0844 1820.29 16.1706L1821.01 18.4943C1821.04 18.6077 1820.93 18.714 1820.82 18.6788L1818.32 17.9021C1818.24 17.8765 1818.15 17.9268 1818.13 18.0111L1817.6 20.4117C1817.57 20.5245 1817.43 20.5661 1817.35 20.4855L1815.53 18.709C1815.46 18.6501 1815.37 18.6539 1815.31 18.7174L1813.63 20.6327C1813.55 20.7195 1813.41 20.6891 1813.38 20.5786L1812.66 18.2275C1812.63 18.1449 1812.54 18.1016 1812.46 18.1336L1810.03 19.1056C1809.92 19.1496 1809.8 19.0521 1809.83 18.9363L1810.36 16.563C1810.38 16.475 1810.32 16.3899 1810.23 16.3835L1807.62 16.1966C1807.5 16.1879 1807.44 16.0434 1807.52 15.9519L1809.17 14.0842C1809.23 14.0146 1809.22 13.9062 1809.14 13.8593L1806.95 12.5772C1806.84 12.5151 1806.85 12.358 1806.97 12.3127L1809.37 11.3617C1809.45 11.3279 1809.49 11.225 1809.44 11.1469L1808.14 9.06184C1808.08 8.95934 1808.16 8.82805 1808.28 8.837L1810.9 9.03211C1810.99 9.03865 1811.06 8.96706 1811.06 8.87893L1810.96 6.44655C1810.96 6.32978 1811.08 6.25406 1811.18 6.31339L1813.42 7.62915C1813.49 7.67227 1813.58 7.64485 1813.62 7.56923L1814.76 5.3435Z" fill="#F2EAE9"/>
<path d="M1847.36 10.8172C1848.82 10.8172 1850 9.63682 1850 8.1808C1850 6.72477 1848.82 5.54443 1847.36 5.54443C1845.91 5.54443 1844.73 6.72477 1844.73 8.1808C1844.73 9.63682 1845.91 10.8172 1847.36 10.8172Z" fill="#F2EAE9"/>
<path d="M1835.42 8.4107H1837.71V9.61853H1837.77C1838.26 8.79805 1839.13 8.16772 1840.37 8.16772C1841.51 8.16772 1842.42 8.79805 1842.86 9.74178H1842.89C1843.5 8.76284 1844.45 8.16772 1845.59 8.16772C1847.47 8.16772 1848.54 9.39317 1848.54 11.3511V17.3867H1846.16V11.7525C1846.16 10.7383 1845.65 10.2136 1844.78 10.2136C1843.78 10.2136 1843.17 10.9848 1843.17 12.1715V17.3832H1840.79V11.749C1840.79 10.7348 1840.28 10.2101 1839.41 10.2101C1838.45 10.2101 1837.8 10.9813 1837.8 12.168V17.3797H1835.42V8.40718L1835.42 8.4107Z" fill="#F2EAE9"/>
<path d="M1835.4 19.9635C1836.72 19.9635 1837.8 18.8897 1837.8 17.565C1837.8 16.2404 1836.72 15.1665 1835.4 15.1665C1834.07 15.1665 1833 16.2404 1833 17.565C1833 18.8897 1834.07 19.9635 1835.4 19.9635Z" fill="#F2EAE9"/>
<path d="M1867.76 5.3435C1867.81 5.24108 1867.96 5.23537 1868.02 5.33334L1869.33 7.46221C1869.37 7.53453 1869.47 7.55441 1869.54 7.50565L1871.66 6.01766C1871.76 5.95057 1871.89 6.01607 1871.89 6.13285L1871.98 8.56554C1871.99 8.65368 1872.07 8.7192 1872.15 8.70573L1874.75 8.30416C1874.87 8.28574 1874.96 8.41034 1874.91 8.51753L1873.78 10.6981C1873.74 10.7798 1873.78 10.8797 1873.87 10.9067L1876.34 11.6651C1876.46 11.7012 1876.48 11.8569 1876.38 11.9272L1874.3 13.3782C1874.22 13.4313 1874.21 13.5407 1874.28 13.6053L1876.07 15.3369C1876.16 15.4218 1876.11 15.5705 1875.99 15.5888L1873.4 15.9811C1873.32 15.9946 1873.26 16.0844 1873.29 16.1706L1874.01 18.4943C1874.04 18.6077 1873.93 18.714 1873.82 18.6788L1871.32 17.9021C1871.24 17.8765 1871.15 17.9268 1871.13 18.0111L1870.6 20.4117C1870.57 20.5245 1870.43 20.5661 1870.35 20.4855L1868.53 18.709C1868.46 18.6501 1868.37 18.6539 1868.31 18.7174L1866.63 20.6327C1866.55 20.7195 1866.41 20.6891 1866.38 20.5786L1865.66 18.2275C1865.63 18.1449 1865.54 18.1016 1865.46 18.1336L1863.03 19.1056C1862.92 19.1496 1862.8 19.0521 1862.83 18.9363L1863.36 16.563C1863.38 16.475 1863.32 16.3899 1863.23 16.3835L1860.62 16.1966C1860.5 16.1879 1860.44 16.0434 1860.52 15.9519L1862.17 14.0842C1862.23 14.0146 1862.22 13.9062 1862.14 13.8593L1859.95 12.5772C1859.84 12.5151 1859.85 12.358 1859.97 12.3127L1862.37 11.3617C1862.45 11.3279 1862.49 11.225 1862.44 11.1469L1861.14 9.06184C1861.08 8.95934 1861.16 8.82805 1861.28 8.837L1863.9 9.03211C1863.99 9.03865 1864.06 8.96706 1864.06 8.87893L1863.96 6.44655C1863.96 6.32978 1864.08 6.25406 1864.18 6.31339L1866.42 7.62915C1866.49 7.67227 1866.58 7.64485 1866.62 7.56923L1867.76 5.3435Z" fill="#F2EAE9"/>
<path d="M1900.36 10.8172C1901.82 10.8172 1903 9.63682 1903 8.1808C1903 6.72477 1901.82 5.54443 1900.36 5.54443C1898.91 5.54443 1897.73 6.72477 1897.73 8.1808C1897.73 9.63682 1898.91 10.8172 1900.36 10.8172Z" fill="#F2EAE9"/>
<path d="M1888.42 8.4107H1890.71V9.61853H1890.77C1891.26 8.79805 1892.13 8.16772 1893.37 8.16772C1894.51 8.16772 1895.42 8.79805 1895.86 9.74178H1895.89C1896.5 8.76284 1897.45 8.16772 1898.59 8.16772C1900.47 8.16772 1901.54 9.39317 1901.54 11.3511V17.3867H1899.16V11.7525C1899.16 10.7383 1898.65 10.2136 1897.78 10.2136C1896.78 10.2136 1896.17 10.9848 1896.17 12.1715V17.3832H1893.79V11.749C1893.79 10.7348 1893.28 10.2101 1892.41 10.2101C1891.45 10.2101 1890.8 10.9813 1890.8 12.168V17.3797H1888.42V8.40718L1888.42 8.4107Z" fill="#F2EAE9"/>
<path d="M1888.4 19.9635C1889.72 19.9635 1890.8 18.8897 1890.8 17.565C1890.8 16.2404 1889.72 15.1665 1888.4 15.1665C1887.07 15.1665 1886 16.2404 1886 17.565C1886 18.8897 1887.07 19.9635 1888.4 19.9635Z" fill="#F2EAE9"/>
<path d="M1284.76 5.3435C1284.81 5.24108 1284.96 5.23537 1285.02 5.33334L1286.33 7.46221C1286.37 7.53453 1286.47 7.55441 1286.54 7.50565L1288.66 6.01766C1288.76 5.95057 1288.89 6.01607 1288.89 6.13285L1288.98 8.56554C1288.99 8.65368 1289.07 8.7192 1289.15 8.70573L1291.75 8.30416C1291.87 8.28574 1291.96 8.41034 1291.91 8.51753L1290.78 10.6981C1290.74 10.7798 1290.78 10.8797 1290.87 10.9067L1293.34 11.6651C1293.46 11.7012 1293.48 11.8569 1293.38 11.9272L1291.3 13.3782C1291.22 13.4313 1291.21 13.5407 1291.28 13.6053L1293.07 15.3369C1293.16 15.4218 1293.11 15.5705 1292.99 15.5888L1290.4 15.9811C1290.32 15.9946 1290.26 16.0844 1290.29 16.1706L1291.01 18.4943C1291.04 18.6077 1290.93 18.714 1290.82 18.6788L1288.32 17.9021C1288.24 17.8765 1288.15 17.9268 1288.13 18.0111L1287.6 20.4117C1287.57 20.5245 1287.43 20.5661 1287.35 20.4855L1285.52 18.709C1285.46 18.6501 1285.37 18.6539 1285.31 18.7174L1283.63 20.6327C1283.55 20.7195 1283.41 20.6891 1283.38 20.5786L1282.66 18.2275C1282.63 18.1449 1282.54 18.1016 1282.46 18.1336L1280.03 19.1056C1279.92 19.1496 1279.8 19.0521 1279.83 18.9363L1280.36 16.563C1280.38 16.475 1280.32 16.3899 1280.23 16.3835L1277.62 16.1966C1277.5 16.1879 1277.44 16.0434 1277.52 15.9519L1279.17 14.0842C1279.23 14.0146 1279.21 13.9062 1279.13 13.8593L1276.94 12.5772C1276.84 12.5151 1276.85 12.358 1276.96 12.3127L1279.37 11.3617C1279.45 11.3279 1279.49 11.225 1279.44 11.1469L1278.14 9.06184C1278.08 8.95934 1278.16 8.82805 1278.28 8.837L1280.9 9.03211C1280.99 9.03865 1281.06 8.96706 1281.06 8.87893L1280.96 6.44655C1280.96 6.32978 1281.08 6.25406 1281.18 6.31339L1283.42 7.62915C1283.49 7.67227 1283.58 7.64485 1283.62 7.56923L1284.76 5.3435Z" fill="#F2EAE9"/>
<path d="M1317.36 10.8172C1318.82 10.8172 1320 9.63682 1320 8.1808C1320 6.72477 1318.82 5.54443 1317.36 5.54443C1315.91 5.54443 1314.73 6.72477 1314.73 8.1808C1314.73 9.63682 1315.91 10.8172 1317.36 10.8172Z" fill="#F2EAE9"/>
<path d="M1305.42 8.4107H1307.71V9.61853H1307.77C1308.26 8.79805 1309.13 8.16772 1310.37 8.16772C1311.51 8.16772 1312.42 8.79805 1312.86 9.74178H1312.89C1313.5 8.76284 1314.45 8.16772 1315.59 8.16772C1317.47 8.16772 1318.54 9.39317 1318.54 11.3511V17.3867H1316.16V11.7525C1316.16 10.7383 1315.65 10.2136 1314.78 10.2136C1313.78 10.2136 1313.17 10.9848 1313.17 12.1715V17.3832H1310.79V11.749C1310.79 10.7348 1310.28 10.2101 1309.41 10.2101C1308.45 10.2101 1307.8 10.9813 1307.8 12.168V17.3797H1305.42V8.40718L1305.42 8.4107Z" fill="#F2EAE9"/>
<path d="M1305.4 19.9635C1306.72 19.9635 1307.8 18.8897 1307.8 17.565C1307.8 16.2404 1306.72 15.1665 1305.4 15.1665C1304.07 15.1665 1303 16.2404 1303 17.565C1303 18.8897 1304.07 19.9635 1305.4 19.9635Z" fill="#F2EAE9"/>
<path d="M1337.76 5.3435C1337.81 5.24108 1337.96 5.23537 1338.02 5.33334L1339.33 7.46221C1339.37 7.53453 1339.47 7.55441 1339.54 7.50565L1341.66 6.01766C1341.76 5.95057 1341.89 6.01607 1341.89 6.13285L1341.98 8.56554C1341.99 8.65368 1342.07 8.7192 1342.15 8.70573L1344.75 8.30416C1344.87 8.28574 1344.96 8.41034 1344.91 8.51753L1343.78 10.6981C1343.74 10.7798 1343.78 10.8797 1343.87 10.9067L1346.34 11.6651C1346.46 11.7012 1346.48 11.8569 1346.38 11.9272L1344.3 13.3782C1344.22 13.4313 1344.21 13.5407 1344.28 13.6053L1346.07 15.3369C1346.16 15.4218 1346.11 15.5705 1345.99 15.5888L1343.4 15.9811C1343.32 15.9946 1343.26 16.0844 1343.29 16.1706L1344.01 18.4943C1344.04 18.6077 1343.93 18.714 1343.82 18.6788L1341.32 17.9021C1341.24 17.8765 1341.15 17.9268 1341.13 18.0111L1340.6 20.4117C1340.57 20.5245 1340.43 20.5661 1340.35 20.4855L1338.52 18.709C1338.46 18.6501 1338.37 18.6539 1338.31 18.7174L1336.63 20.6327C1336.55 20.7195 1336.41 20.6891 1336.38 20.5786L1335.66 18.2275C1335.63 18.1449 1335.54 18.1016 1335.46 18.1336L1333.03 19.1056C1332.92 19.1496 1332.8 19.0521 1332.83 18.9363L1333.36 16.563C1333.38 16.475 1333.32 16.3899 1333.23 16.3835L1330.62 16.1966C1330.5 16.1879 1330.44 16.0434 1330.52 15.9519L1332.17 14.0842C1332.23 14.0146 1332.21 13.9062 1332.13 13.8593L1329.94 12.5772C1329.84 12.5151 1329.85 12.358 1329.96 12.3127L1332.37 11.3617C1332.45 11.3279 1332.49 11.225 1332.44 11.1469L1331.14 9.06184C1331.08 8.95934 1331.16 8.82805 1331.28 8.837L1333.9 9.03211C1333.99 9.03865 1334.06 8.96706 1334.06 8.87893L1333.96 6.44655C1333.96 6.32978 1334.08 6.25406 1334.18 6.31339L1336.42 7.62915C1336.49 7.67227 1336.58 7.64485 1336.62 7.56923L1337.76 5.3435Z" fill="#F2EAE9"/>
<path d="M1370.36 10.8172C1371.82 10.8172 1373 9.63682 1373 8.1808C1373 6.72477 1371.82 5.54443 1370.36 5.54443C1368.91 5.54443 1367.73 6.72477 1367.73 8.1808C1367.73 9.63682 1368.91 10.8172 1370.36 10.8172Z" fill="#F2EAE9"/>
<path d="M1358.42 8.4107H1360.71V9.61853H1360.77C1361.26 8.79805 1362.13 8.16772 1363.37 8.16772C1364.51 8.16772 1365.42 8.79805 1365.86 9.74178H1365.89C1366.5 8.76284 1367.45 8.16772 1368.59 8.16772C1370.47 8.16772 1371.54 9.39317 1371.54 11.3511V17.3867H1369.16V11.7525C1369.16 10.7383 1368.65 10.2136 1367.78 10.2136C1366.78 10.2136 1366.17 10.9848 1366.17 12.1715V17.3832H1363.79V11.749C1363.79 10.7348 1363.28 10.2101 1362.41 10.2101C1361.45 10.2101 1360.8 10.9813 1360.8 12.168V17.3797H1358.42V8.40718L1358.42 8.4107Z" fill="#F2EAE9"/>
<path d="M1358.4 19.9635C1359.72 19.9635 1360.8 18.8897 1360.8 17.565C1360.8 16.2404 1359.72 15.1665 1358.4 15.1665C1357.07 15.1665 1356 16.2404 1356 17.565C1356 18.8897 1357.07 19.9635 1358.4 19.9635Z" fill="#F2EAE9"/>
<path d="M1390.76 5.3435C1390.81 5.24108 1390.96 5.23537 1391.02 5.33334L1392.33 7.46221C1392.37 7.53453 1392.47 7.55441 1392.54 7.50565L1394.66 6.01766C1394.76 5.95057 1394.89 6.01607 1394.89 6.13285L1394.98 8.56554C1394.99 8.65368 1395.07 8.7192 1395.15 8.70573L1397.75 8.30416C1397.87 8.28574 1397.96 8.41034 1397.91 8.51753L1396.78 10.6981C1396.74 10.7798 1396.78 10.8797 1396.87 10.9067L1399.34 11.6651C1399.46 11.7012 1399.48 11.8569 1399.38 11.9272L1397.3 13.3782C1397.22 13.4313 1397.21 13.5407 1397.28 13.6053L1399.07 15.3369C1399.16 15.4218 1399.11 15.5705 1398.99 15.5888L1396.4 15.9811C1396.32 15.9946 1396.26 16.0844 1396.29 16.1706L1397.01 18.4943C1397.04 18.6077 1396.93 18.714 1396.82 18.6788L1394.32 17.9021C1394.24 17.8765 1394.15 17.9268 1394.13 18.0111L1393.6 20.4117C1393.57 20.5245 1393.43 20.5661 1393.35 20.4855L1391.53 18.709C1391.46 18.6501 1391.37 18.6539 1391.31 18.7174L1389.63 20.6327C1389.55 20.7195 1389.41 20.6891 1389.38 20.5786L1388.66 18.2275C1388.63 18.1449 1388.54 18.1016 1388.46 18.1336L1386.03 19.1056C1385.92 19.1496 1385.8 19.0521 1385.83 18.9363L1386.36 16.563C1386.38 16.475 1386.32 16.3899 1386.23 16.3835L1383.62 16.1966C1383.5 16.1879 1383.44 16.0434 1383.52 15.9519L1385.17 14.0842C1385.23 14.0146 1385.22 13.9062 1385.14 13.8593L1382.95 12.5772C1382.84 12.5151 1382.85 12.358 1382.97 12.3127L1385.37 11.3617C1385.45 11.3279 1385.49 11.225 1385.44 11.1469L1384.14 9.06184C1384.08 8.95934 1384.16 8.82805 1384.28 8.837L1386.9 9.03211C1386.99 9.03865 1387.06 8.96706 1387.06 8.87893L1386.96 6.44655C1386.96 6.32978 1387.08 6.25406 1387.18 6.31339L1389.42 7.62915C1389.49 7.67227 1389.58 7.64485 1389.62 7.56923L1390.76 5.3435Z" fill="#F2EAE9"/>
<path d="M1423.36 10.8172C1424.82 10.8172 1426 9.63682 1426 8.1808C1426 6.72477 1424.82 5.54443 1423.36 5.54443C1421.91 5.54443 1420.73 6.72477 1420.73 8.1808C1420.73 9.63682 1421.91 10.8172 1423.36 10.8172Z" fill="#F2EAE9"/>
<path d="M1411.42 8.4107H1413.71V9.61853H1413.77C1414.26 8.79805 1415.13 8.16772 1416.37 8.16772C1417.51 8.16772 1418.42 8.79805 1418.86 9.74178H1418.89C1419.5 8.76284 1420.45 8.16772 1421.59 8.16772C1423.47 8.16772 1424.54 9.39317 1424.54 11.3511V17.3867H1422.16V11.7525C1422.16 10.7383 1421.65 10.2136 1420.78 10.2136C1419.78 10.2136 1419.17 10.9848 1419.17 12.1715V17.3832H1416.79V11.749C1416.79 10.7348 1416.28 10.2101 1415.41 10.2101C1414.45 10.2101 1413.8 10.9813 1413.8 12.168V17.3797H1411.42V8.40718L1411.42 8.4107Z" fill="#F2EAE9"/>
<path d="M1411.4 19.9635C1412.72 19.9635 1413.8 18.8897 1413.8 17.565C1413.8 16.2404 1412.72 15.1665 1411.4 15.1665C1410.07 15.1665 1409 16.2404 1409 17.565C1409 18.8897 1410.07 19.9635 1411.4 19.9635Z" fill="#F2EAE9"/>
<path d="M1443.76 5.3435C1443.81 5.24108 1443.96 5.23537 1444.02 5.33334L1445.33 7.46221C1445.37 7.53453 1445.47 7.55441 1445.54 7.50565L1447.66 6.01766C1447.76 5.95057 1447.89 6.01607 1447.89 6.13285L1447.98 8.56554C1447.99 8.65368 1448.07 8.7192 1448.15 8.70573L1450.75 8.30416C1450.87 8.28574 1450.96 8.41034 1450.91 8.51753L1449.78 10.6981C1449.74 10.7798 1449.78 10.8797 1449.87 10.9067L1452.34 11.6651C1452.46 11.7012 1452.48 11.8569 1452.38 11.9272L1450.3 13.3782C1450.22 13.4313 1450.21 13.5407 1450.28 13.6053L1452.07 15.3369C1452.16 15.4218 1452.11 15.5705 1451.99 15.5888L1449.4 15.9811C1449.32 15.9946 1449.26 16.0844 1449.29 16.1706L1450.01 18.4943C1450.04 18.6077 1449.93 18.714 1449.82 18.6788L1447.32 17.9021C1447.24 17.8765 1447.15 17.9268 1447.13 18.0111L1446.6 20.4117C1446.57 20.5245 1446.43 20.5661 1446.35 20.4855L1444.53 18.709C1444.46 18.6501 1444.37 18.6539 1444.31 18.7174L1442.63 20.6327C1442.55 20.7195 1442.41 20.6891 1442.38 20.5786L1441.66 18.2275C1441.63 18.1449 1441.54 18.1016 1441.46 18.1336L1439.03 19.1056C1438.92 19.1496 1438.8 19.0521 1438.83 18.9363L1439.36 16.563C1439.38 16.475 1439.32 16.3899 1439.23 16.3835L1436.62 16.1966C1436.5 16.1879 1436.44 16.0434 1436.52 15.9519L1438.17 14.0842C1438.23 14.0146 1438.22 13.9062 1438.14 13.8593L1435.95 12.5772C1435.84 12.5151 1435.85 12.358 1435.97 12.3127L1438.37 11.3617C1438.45 11.3279 1438.49 11.225 1438.44 11.1469L1437.14 9.06184C1437.08 8.95934 1437.16 8.82805 1437.28 8.837L1439.9 9.03211C1439.99 9.03865 1440.06 8.96706 1440.06 8.87893L1439.96 6.44655C1439.96 6.32978 1440.08 6.25406 1440.18 6.31339L1442.42 7.62915C1442.49 7.67227 1442.58 7.64485 1442.62 7.56923L1443.76 5.3435Z" fill="#F2EAE9"/>
<path d="M1476.36 10.8172C1477.82 10.8172 1479 9.63682 1479 8.1808C1479 6.72477 1477.82 5.54443 1476.36 5.54443C1474.91 5.54443 1473.73 6.72477 1473.73 8.1808C1473.73 9.63682 1474.91 10.8172 1476.36 10.8172Z" fill="#F2EAE9"/>
<path d="M1464.42 8.4107H1466.71V9.61853H1466.77C1467.26 8.79805 1468.13 8.16772 1469.37 8.16772C1470.51 8.16772 1471.42 8.79805 1471.86 9.74178H1471.89C1472.5 8.76284 1473.45 8.16772 1474.59 8.16772C1476.47 8.16772 1477.54 9.39317 1477.54 11.3511V17.3867H1475.16V11.7525C1475.16 10.7383 1474.65 10.2136 1473.78 10.2136C1472.78 10.2136 1472.17 10.9848 1472.17 12.1715V17.3832H1469.79V11.749C1469.79 10.7348 1469.28 10.2101 1468.41 10.2101C1467.45 10.2101 1466.8 10.9813 1466.8 12.168V17.3797H1464.42V8.40718L1464.42 8.4107Z" fill="#F2EAE9"/>
<path d="M1464.4 19.9635C1465.72 19.9635 1466.8 18.8897 1466.8 17.565C1466.8 16.2404 1465.72 15.1665 1464.4 15.1665C1463.07 15.1665 1462 16.2404 1462 17.565C1462 18.8897 1463.07 19.9635 1464.4 19.9635Z" fill="#F2EAE9"/>
<path d="M1072.76 5.3435C1072.81 5.24108 1072.96 5.23537 1073.02 5.33334L1074.33 7.46221C1074.37 7.53453 1074.47 7.55441 1074.54 7.50565L1076.66 6.01766C1076.76 5.95057 1076.89 6.01607 1076.89 6.13285L1076.98 8.56554C1076.99 8.65368 1077.07 8.7192 1077.15 8.70573L1079.75 8.30416C1079.87 8.28574 1079.96 8.41034 1079.91 8.51753L1078.78 10.6981C1078.74 10.7798 1078.78 10.8797 1078.87 10.9067L1081.34 11.6651C1081.46 11.7012 1081.48 11.8569 1081.38 11.9272L1079.3 13.3782C1079.22 13.4313 1079.21 13.5407 1079.28 13.6053L1081.07 15.3369C1081.16 15.4218 1081.11 15.5705 1080.99 15.5888L1078.4 15.9811C1078.32 15.9946 1078.26 16.0844 1078.29 16.1706L1079.01 18.4943C1079.04 18.6077 1078.93 18.714 1078.82 18.6788L1076.32 17.9021C1076.24 17.8765 1076.15 17.9268 1076.13 18.0111L1075.6 20.4117C1075.57 20.5245 1075.43 20.5661 1075.35 20.4855L1073.52 18.709C1073.46 18.6501 1073.37 18.6539 1073.31 18.7174L1071.63 20.6327C1071.55 20.7195 1071.41 20.6891 1071.38 20.5786L1070.66 18.2275C1070.63 18.1449 1070.54 18.1016 1070.46 18.1336L1068.03 19.1056C1067.92 19.1496 1067.8 19.0521 1067.83 18.9363L1068.36 16.563C1068.38 16.475 1068.32 16.3899 1068.23 16.3835L1065.62 16.1966C1065.5 16.1879 1065.44 16.0434 1065.52 15.9519L1067.17 14.0842C1067.23 14.0146 1067.21 13.9062 1067.13 13.8593L1064.94 12.5772C1064.84 12.5151 1064.85 12.358 1064.96 12.3127L1067.37 11.3617C1067.45 11.3279 1067.49 11.225 1067.44 11.1469L1066.14 9.06184C1066.08 8.95934 1066.16 8.82805 1066.28 8.837L1068.9 9.03211C1068.99 9.03865 1069.06 8.96706 1069.06 8.87893L1068.96 6.44655C1068.96 6.32978 1069.08 6.25406 1069.18 6.31339L1071.42 7.62915C1071.49 7.67227 1071.58 7.64485 1071.62 7.56923L1072.76 5.3435Z" fill="#F2EAE9"/>
<path d="M1105.36 10.8172C1106.82 10.8172 1108 9.63682 1108 8.1808C1108 6.72477 1106.82 5.54443 1105.36 5.54443C1103.91 5.54443 1102.73 6.72477 1102.73 8.1808C1102.73 9.63682 1103.91 10.8172 1105.36 10.8172Z" fill="#F2EAE9"/>
<path d="M1093.42 8.4107H1095.71V9.61853H1095.77C1096.26 8.79805 1097.13 8.16772 1098.37 8.16772C1099.51 8.16772 1100.42 8.79805 1100.86 9.74178H1100.89C1101.5 8.76284 1102.45 8.16772 1103.59 8.16772C1105.47 8.16772 1106.54 9.39317 1106.54 11.3511V17.3867H1104.16V11.7525C1104.16 10.7383 1103.65 10.2136 1102.78 10.2136C1101.78 10.2136 1101.17 10.9848 1101.17 12.1715V17.3832H1098.79V11.749C1098.79 10.7348 1098.28 10.2101 1097.41 10.2101C1096.45 10.2101 1095.8 10.9813 1095.8 12.168V17.3797H1093.42V8.40718L1093.42 8.4107Z" fill="#F2EAE9"/>
<path d="M1093.4 19.9635C1094.72 19.9635 1095.8 18.8897 1095.8 17.565C1095.8 16.2404 1094.72 15.1665 1093.4 15.1665C1092.07 15.1665 1091 16.2404 1091 17.565C1091 18.8897 1092.07 19.9635 1093.4 19.9635Z" fill="#F2EAE9"/>
<path d="M1125.76 5.3435C1125.81 5.24108 1125.96 5.23537 1126.02 5.33334L1127.33 7.46221C1127.37 7.53453 1127.47 7.55441 1127.54 7.50565L1129.66 6.01766C1129.76 5.95057 1129.89 6.01607 1129.89 6.13285L1129.98 8.56554C1129.99 8.65368 1130.07 8.7192 1130.15 8.70573L1132.75 8.30416C1132.87 8.28574 1132.96 8.41034 1132.91 8.51753L1131.78 10.6981C1131.74 10.7798 1131.78 10.8797 1131.87 10.9067L1134.34 11.6651C1134.46 11.7012 1134.48 11.8569 1134.38 11.9272L1132.3 13.3782C1132.22 13.4313 1132.21 13.5407 1132.28 13.6053L1134.07 15.3369C1134.16 15.4218 1134.11 15.5705 1133.99 15.5888L1131.4 15.9811C1131.32 15.9946 1131.26 16.0844 1131.29 16.1706L1132.01 18.4943C1132.04 18.6077 1131.93 18.714 1131.82 18.6788L1129.32 17.9021C1129.24 17.8765 1129.15 17.9268 1129.13 18.0111L1128.6 20.4117C1128.57 20.5245 1128.43 20.5661 1128.35 20.4855L1126.52 18.709C1126.46 18.6501 1126.37 18.6539 1126.31 18.7174L1124.63 20.6327C1124.55 20.7195 1124.41 20.6891 1124.38 20.5786L1123.66 18.2275C1123.63 18.1449 1123.54 18.1016 1123.46 18.1336L1121.03 19.1056C1120.92 19.1496 1120.8 19.0521 1120.83 18.9363L1121.36 16.563C1121.38 16.475 1121.32 16.3899 1121.23 16.3835L1118.62 16.1966C1118.5 16.1879 1118.44 16.0434 1118.52 15.9519L1120.17 14.0842C1120.23 14.0146 1120.21 13.9062 1120.13 13.8593L1117.94 12.5772C1117.84 12.5151 1117.85 12.358 1117.96 12.3127L1120.37 11.3617C1120.45 11.3279 1120.49 11.225 1120.44 11.1469L1119.14 9.06184C1119.08 8.95934 1119.16 8.82805 1119.28 8.837L1121.9 9.03211C1121.99 9.03865 1122.06 8.96706 1122.06 8.87893L1121.96 6.44655C1121.96 6.32978 1122.08 6.25406 1122.18 6.31339L1124.42 7.62915C1124.49 7.67227 1124.58 7.64485 1124.62 7.56923L1125.76 5.3435Z" fill="#F2EAE9"/>
<path d="M1158.36 10.8172C1159.82 10.8172 1161 9.63682 1161 8.1808C1161 6.72477 1159.82 5.54443 1158.36 5.54443C1156.91 5.54443 1155.73 6.72477 1155.73 8.1808C1155.73 9.63682 1156.91 10.8172 1158.36 10.8172Z" fill="#F2EAE9"/>
<path d="M1146.42 8.4107H1148.71V9.61853H1148.77C1149.26 8.79805 1150.13 8.16772 1151.37 8.16772C1152.51 8.16772 1153.42 8.79805 1153.86 9.74178H1153.89C1154.5 8.76284 1155.45 8.16772 1156.59 8.16772C1158.47 8.16772 1159.54 9.39317 1159.54 11.3511V17.3867H1157.16V11.7525C1157.16 10.7383 1156.65 10.2136 1155.78 10.2136C1154.78 10.2136 1154.17 10.9848 1154.17 12.1715V17.3832H1151.79V11.749C1151.79 10.7348 1151.28 10.2101 1150.41 10.2101C1149.45 10.2101 1148.8 10.9813 1148.8 12.168V17.3797H1146.42V8.40718L1146.42 8.4107Z" fill="#F2EAE9"/>
<path d="M1146.4 19.9635C1147.72 19.9635 1148.8 18.8897 1148.8 17.565C1148.8 16.2404 1147.72 15.1665 1146.4 15.1665C1145.07 15.1665 1144 16.2404 1144 17.565C1144 18.8897 1145.07 19.9635 1146.4 19.9635Z" fill="#F2EAE9"/>
<path d="M1178.76 5.3435C1178.81 5.24108 1178.96 5.23537 1179.02 5.33334L1180.33 7.46221C1180.37 7.53453 1180.47 7.55441 1180.54 7.50565L1182.66 6.01766C1182.76 5.95057 1182.89 6.01607 1182.89 6.13285L1182.98 8.56554C1182.99 8.65368 1183.07 8.7192 1183.15 8.70573L1185.75 8.30416C1185.87 8.28574 1185.96 8.41034 1185.91 8.51753L1184.78 10.6981C1184.74 10.7798 1184.78 10.8797 1184.87 10.9067L1187.34 11.6651C1187.46 11.7012 1187.48 11.8569 1187.38 11.9272L1185.3 13.3782C1185.22 13.4313 1185.21 13.5407 1185.28 13.6053L1187.07 15.3369C1187.16 15.4218 1187.11 15.5705 1186.99 15.5888L1184.4 15.9811C1184.32 15.9946 1184.26 16.0844 1184.29 16.1706L1185.01 18.4943C1185.04 18.6077 1184.93 18.714 1184.82 18.6788L1182.32 17.9021C1182.24 17.8765 1182.15 17.9268 1182.13 18.0111L1181.6 20.4117C1181.57 20.5245 1181.43 20.5661 1181.35 20.4855L1179.52 18.709C1179.46 18.6501 1179.37 18.6539 1179.31 18.7174L1177.63 20.6327C1177.55 20.7195 1177.41 20.6891 1177.38 20.5786L1176.66 18.2275C1176.63 18.1449 1176.54 18.1016 1176.46 18.1336L1174.03 19.1056C1173.92 19.1496 1173.8 19.0521 1173.83 18.9363L1174.36 16.563C1174.38 16.475 1174.32 16.3899 1174.23 16.3835L1171.62 16.1966C1171.5 16.1879 1171.44 16.0434 1171.52 15.9519L1173.17 14.0842C1173.23 14.0146 1173.21 13.9062 1173.13 13.8593L1170.94 12.5772C1170.84 12.5151 1170.85 12.358 1170.96 12.3127L1173.37 11.3617C1173.45 11.3279 1173.49 11.225 1173.44 11.1469L1172.14 9.06184C1172.08 8.95934 1172.16 8.82805 1172.28 8.837L1174.9 9.03211C1174.99 9.03865 1175.06 8.96706 1175.06 8.87893L1174.96 6.44655C1174.96 6.32978 1175.08 6.25406 1175.18 6.31339L1177.42 7.62915C1177.49 7.67227 1177.58 7.64485 1177.62 7.56923L1178.76 5.3435Z" fill="#F2EAE9"/>
<path d="M1211.36 10.8172C1212.82 10.8172 1214 9.63682 1214 8.1808C1214 6.72477 1212.82 5.54443 1211.36 5.54443C1209.91 5.54443 1208.73 6.72477 1208.73 8.1808C1208.73 9.63682 1209.91 10.8172 1211.36 10.8172Z" fill="#F2EAE9"/>
<path d="M1199.42 8.4107H1201.71V9.61853H1201.77C1202.26 8.79805 1203.13 8.16772 1204.37 8.16772C1205.51 8.16772 1206.42 8.79805 1206.86 9.74178H1206.89C1207.5 8.76284 1208.45 8.16772 1209.59 8.16772C1211.47 8.16772 1212.54 9.39317 1212.54 11.3511V17.3867H1210.16V11.7525C1210.16 10.7383 1209.65 10.2136 1208.78 10.2136C1207.78 10.2136 1207.17 10.9848 1207.17 12.1715V17.3832H1204.79V11.749C1204.79 10.7348 1204.28 10.2101 1203.41 10.2101C1202.45 10.2101 1201.8 10.9813 1201.8 12.168V17.3797H1199.42V8.40718L1199.42 8.4107Z" fill="#F2EAE9"/>
<path d="M1199.4 19.9635C1200.72 19.9635 1201.8 18.8897 1201.8 17.565C1201.8 16.2404 1200.72 15.1665 1199.4 15.1665C1198.07 15.1665 1197 16.2404 1197 17.565C1197 18.8897 1198.07 19.9635 1199.4 19.9635Z" fill="#F2EAE9"/>
<path d="M1231.76 5.3435C1231.81 5.24108 1231.96 5.23537 1232.02 5.33334L1233.33 7.46221C1233.37 7.53453 1233.47 7.55441 1233.54 7.50565L1235.66 6.01766C1235.76 5.95057 1235.89 6.01607 1235.89 6.13285L1235.98 8.56554C1235.99 8.65368 1236.07 8.7192 1236.15 8.70573L1238.75 8.30416C1238.87 8.28574 1238.96 8.41034 1238.91 8.51753L1237.78 10.6981C1237.74 10.7798 1237.78 10.8797 1237.87 10.9067L1240.34 11.6651C1240.46 11.7012 1240.48 11.8569 1240.38 11.9272L1238.3 13.3782C1238.22 13.4313 1238.21 13.5407 1238.28 13.6053L1240.07 15.3369C1240.16 15.4218 1240.11 15.5705 1239.99 15.5888L1237.4 15.9811C1237.32 15.9946 1237.26 16.0844 1237.29 16.1706L1238.01 18.4943C1238.04 18.6077 1237.93 18.714 1237.82 18.6788L1235.32 17.9021C1235.24 17.8765 1235.15 17.9268 1235.13 18.0111L1234.6 20.4117C1234.57 20.5245 1234.43 20.5661 1234.35 20.4855L1232.52 18.709C1232.46 18.6501 1232.37 18.6539 1232.31 18.7174L1230.63 20.6327C1230.55 20.7195 1230.41 20.6891 1230.38 20.5786L1229.66 18.2275C1229.63 18.1449 1229.54 18.1016 1229.46 18.1336L1227.03 19.1056C1226.92 19.1496 1226.8 19.0521 1226.83 18.9363L1227.36 16.563C1227.38 16.475 1227.32 16.3899 1227.23 16.3835L1224.62 16.1966C1224.5 16.1879 1224.44 16.0434 1224.52 15.9519L1226.17 14.0842C1226.23 14.0146 1226.21 13.9062 1226.13 13.8593L1223.94 12.5772C1223.84 12.5151 1223.85 12.358 1223.96 12.3127L1226.37 11.3617C1226.45 11.3279 1226.49 11.225 1226.44 11.1469L1225.14 9.06184C1225.08 8.95934 1225.16 8.82805 1225.28 8.837L1227.9 9.03211C1227.99 9.03865 1228.06 8.96706 1228.06 8.87893L1227.96 6.44655C1227.96 6.32978 1228.08 6.25406 1228.18 6.31339L1230.42 7.62915C1230.49 7.67227 1230.58 7.64485 1230.62 7.56923L1231.76 5.3435Z" fill="#F2EAE9"/>
<path d="M1264.36 10.8172C1265.82 10.8172 1267 9.63682 1267 8.1808C1267 6.72477 1265.82 5.54443 1264.36 5.54443C1262.91 5.54443 1261.73 6.72477 1261.73 8.1808C1261.73 9.63682 1262.91 10.8172 1264.36 10.8172Z" fill="#F2EAE9"/>
<path d="M1252.42 8.4107H1254.71V9.61853H1254.77C1255.26 8.79805 1256.13 8.16772 1257.37 8.16772C1258.51 8.16772 1259.42 8.79805 1259.86 9.74178H1259.89C1260.5 8.76284 1261.45 8.16772 1262.59 8.16772C1264.47 8.16772 1265.54 9.39317 1265.54 11.3511V17.3867H1263.16V11.7525C1263.16 10.7383 1262.65 10.2136 1261.78 10.2136C1260.78 10.2136 1260.17 10.9848 1260.17 12.1715V17.3832H1257.79V11.749C1257.79 10.7348 1257.28 10.2101 1256.41 10.2101C1255.45 10.2101 1254.8 10.9813 1254.8 12.168V17.3797H1252.42V8.40718L1252.42 8.4107Z" fill="#F2EAE9"/>
<path d="M1252.4 19.9635C1253.72 19.9635 1254.8 18.8897 1254.8 17.565C1254.8 16.2404 1253.72 15.1665 1252.4 15.1665C1251.07 15.1665 1250 16.2404 1250 17.565C1250 18.8897 1251.07 19.9635 1252.4 19.9635Z" fill="#F2EAE9"/>
<path d="M860.76 5.3435C860.813 5.24108 860.957 5.23537 861.017 5.33334L862.328 7.46221C862.373 7.53453 862.469 7.55441 862.538 7.50565L864.66 6.01766C864.756 5.95057 864.888 6.01607 864.892 6.13285L864.985 8.56554C864.988 8.65368 865.067 8.7192 865.155 8.70573L867.753 8.30416C867.872 8.28574 867.962 8.41034 867.907 8.51753L866.783 10.6981C866.741 10.7798 866.783 10.8797 866.87 10.9067L869.339 11.6651C869.456 11.7012 869.481 11.8569 869.38 11.9272L867.298 13.3782C867.222 13.4313 867.213 13.5407 867.28 13.6053L869.071 15.3369C869.159 15.4218 869.111 15.5705 868.99 15.5888L866.405 15.9811C866.316 15.9946 866.259 16.0844 866.286 16.1706L867.005 18.4943C867.04 18.6077 866.934 18.714 866.821 18.6788L864.318 17.9021C864.235 17.8765 864.149 17.9268 864.13 18.0111L863.598 20.4117C863.573 20.5245 863.434 20.5661 863.351 20.4855L861.525 18.709C861.464 18.6501 861.367 18.6539 861.311 18.7174L859.631 20.6327C859.554 20.7195 859.412 20.6891 859.379 20.5786L858.659 18.2275C858.634 18.1449 858.543 18.1016 858.463 18.1336L856.029 19.1056C855.919 19.1496 855.805 19.0521 855.831 18.9363L856.364 16.563C856.384 16.475 856.321 16.3899 856.231 16.3835L853.622 16.1966C853.501 16.1879 853.441 16.0434 853.522 15.9519L855.171 14.0842C855.232 14.0146 855.215 13.9062 855.135 13.8593L852.945 12.5772C852.839 12.5151 852.851 12.358 852.965 12.3127L855.366 11.3617C855.451 11.3279 855.485 11.225 855.437 11.1469L854.144 9.06184C854.081 8.95934 854.16 8.82805 854.281 8.837L856.902 9.03211C856.99 9.03865 857.064 8.96706 857.061 8.87893L856.961 6.44655C856.956 6.32978 857.082 6.25406 857.183 6.31339L859.416 7.62915C859.489 7.67227 859.583 7.64485 859.622 7.56923L860.76 5.3435Z" fill="#F2EAE9"/>
<path d="M893.363 10.8172C894.819 10.8172 896 9.63682 896 8.1808C896 6.72477 894.819 5.54443 893.363 5.54443C891.907 5.54443 890.726 6.72477 890.726 8.1808C890.726 9.63682 891.907 10.8172 893.363 10.8172Z" fill="#F2EAE9"/>
<path d="M881.421 8.4107H883.714V9.61853H883.767C884.256 8.79805 885.13 8.16772 886.373 8.16772C887.511 8.16772 888.42 8.79805 888.856 9.74178H888.892C889.504 8.76284 890.448 8.16772 891.586 8.16772C893.474 8.16772 894.541 9.39317 894.541 11.3511V17.3867H892.16V11.7525C892.16 10.7383 891.653 10.2136 890.779 10.2136C889.783 10.2136 889.17 10.9848 889.17 12.1715V17.3832H886.789V11.749C886.789 10.7348 886.282 10.2101 885.408 10.2101C884.447 10.2101 883.798 10.9813 883.798 12.168V17.3797H881.417V8.40718L881.421 8.4107Z" fill="#F2EAE9"/>
<path d="M881.399 19.9635C882.724 19.9635 883.798 18.8897 883.798 17.565C883.798 16.2404 882.724 15.1665 881.399 15.1665C880.074 15.1665 879 16.2404 879 17.565C879 18.8897 880.074 19.9635 881.399 19.9635Z" fill="#F2EAE9"/>
<path d="M913.76 5.3435C913.813 5.24108 913.957 5.23537 914.017 5.33334L915.328 7.46221C915.372 7.53453 915.469 7.55441 915.538 7.50565L917.66 6.01766C917.756 5.95057 917.888 6.01607 917.892 6.13285L917.984 8.56554C917.988 8.65368 918.067 8.7192 918.154 8.70573L920.753 8.30416C920.872 8.28574 920.962 8.41034 920.906 8.51753L919.782 10.6981C919.74 10.7798 919.782 10.8797 919.87 10.9067L922.339 11.6651C922.456 11.7012 922.481 11.8569 922.38 11.9272L920.298 13.3782C920.222 13.4313 920.213 13.5407 920.28 13.6053L922.071 15.3369C922.158 15.4218 922.111 15.5705 921.99 15.5888L919.404 15.9811C919.315 15.9946 919.259 16.0844 919.286 16.1706L920.005 18.4943C920.04 18.6077 919.934 18.714 919.82 18.6788L917.317 17.9021C917.235 17.8765 917.148 17.9268 917.13 18.0111L916.598 20.4117C916.573 20.5245 916.434 20.5661 916.351 20.4855L914.525 18.709C914.464 18.6501 914.366 18.6539 914.311 18.7174L912.63 20.6327C912.554 20.7195 912.412 20.6891 912.378 20.5786L911.659 18.2275C911.633 18.1449 911.543 18.1016 911.463 18.1336L909.029 19.1056C908.919 19.1496 908.804 19.0521 908.83 18.9363L909.364 16.563C909.384 16.475 909.321 16.3899 909.231 16.3835L906.622 16.1966C906.5 16.1879 906.441 16.0434 906.522 15.9519L908.171 14.0842C908.232 14.0146 908.215 13.9062 908.135 13.8593L905.945 12.5772C905.838 12.5151 905.85 12.358 905.965 12.3127L908.366 11.3617C908.451 11.3279 908.485 11.225 908.437 11.1469L907.144 9.06184C907.081 8.95934 907.16 8.82805 907.28 8.837L909.902 9.03211C909.99 9.03865 910.064 8.96706 910.061 8.87893L909.96 6.44655C909.956 6.32978 910.082 6.25406 910.183 6.31339L912.416 7.62915C912.489 7.67227 912.583 7.64485 912.622 7.56923L913.76 5.3435Z" fill="#F2EAE9"/>
<path d="M946.363 10.8172C947.819 10.8172 949 9.63682 949 8.1808C949 6.72477 947.819 5.54443 946.363 5.54443C944.907 5.54443 943.726 6.72477 943.726 8.1808C943.726 9.63682 944.907 10.8172 946.363 10.8172Z" fill="#F2EAE9"/>
<path d="M934.421 8.4107H936.714V9.61853H936.767C937.256 8.79805 938.13 8.16772 939.373 8.16772C940.511 8.16772 941.42 8.79805 941.856 9.74178H941.892C942.504 8.76284 943.448 8.16772 944.586 8.16772C946.474 8.16772 947.541 9.39317 947.541 11.3511V17.3867H945.16V11.7525C945.16 10.7383 944.653 10.2136 943.779 10.2136C942.783 10.2136 942.17 10.9848 942.17 12.1715V17.3832H939.789V11.749C939.789 10.7348 939.282 10.2101 938.408 10.2101C937.447 10.2101 936.798 10.9813 936.798 12.168V17.3797H934.417V8.40718L934.421 8.4107Z" fill="#F2EAE9"/>
<path d="M934.399 19.9635C935.724 19.9635 936.798 18.8897 936.798 17.565C936.798 16.2404 935.724 15.1665 934.399 15.1665C933.074 15.1665 932 16.2404 932 17.565C932 18.8897 933.074 19.9635 934.399 19.9635Z" fill="#F2EAE9"/>
<path d="M966.76 5.3435C966.813 5.24108 966.957 5.23537 967.017 5.33334L968.328 7.46221C968.372 7.53453 968.469 7.55441 968.538 7.50565L970.66 6.01766C970.756 5.95057 970.888 6.01607 970.892 6.13285L970.984 8.56554C970.988 8.65368 971.067 8.7192 971.154 8.70573L973.753 8.30416C973.872 8.28574 973.962 8.41034 973.906 8.51753L972.782 10.6981C972.74 10.7798 972.782 10.8797 972.87 10.9067L975.339 11.6651C975.456 11.7012 975.481 11.8569 975.38 11.9272L973.298 13.3782C973.222 13.4313 973.213 13.5407 973.28 13.6053L975.071 15.3369C975.158 15.4218 975.111 15.5705 974.99 15.5888L972.404 15.9811C972.315 15.9946 972.259 16.0844 972.286 16.1706L973.005 18.4943C973.04 18.6077 972.934 18.714 972.82 18.6788L970.317 17.9021C970.235 17.8765 970.148 17.9268 970.13 18.0111L969.598 20.4117C969.573 20.5245 969.434 20.5661 969.351 20.4855L967.525 18.709C967.464 18.6501 967.366 18.6539 967.311 18.7174L965.63 20.6327C965.554 20.7195 965.412 20.6891 965.378 20.5786L964.659 18.2275C964.633 18.1449 964.543 18.1016 964.463 18.1336L962.029 19.1056C961.919 19.1496 961.804 19.0521 961.83 18.9363L962.364 16.563C962.384 16.475 962.321 16.3899 962.231 16.3835L959.622 16.1966C959.5 16.1879 959.441 16.0434 959.522 15.9519L961.171 14.0842C961.232 14.0146 961.215 13.9062 961.135 13.8593L958.945 12.5772C958.838 12.5151 958.85 12.358 958.965 12.3127L961.366 11.3617C961.451 11.3279 961.485 11.225 961.437 11.1469L960.144 9.06184C960.081 8.95934 960.16 8.82805 960.28 8.837L962.902 9.03211C962.99 9.03865 963.064 8.96706 963.061 8.87893L962.96 6.44655C962.956 6.32978 963.082 6.25406 963.183 6.31339L965.416 7.62915C965.489 7.67227 965.583 7.64485 965.622 7.56923L966.76 5.3435Z" fill="#F2EAE9"/>
<path d="M999.363 10.8172C1000.82 10.8172 1002 9.63682 1002 8.1808C1002 6.72477 1000.82 5.54443 999.363 5.54443C997.907 5.54443 996.726 6.72477 996.726 8.1808C996.726 9.63682 997.907 10.8172 999.363 10.8172Z" fill="#F2EAE9"/>
<path d="M987.421 8.4107H989.714V9.61853H989.767C990.256 8.79805 991.13 8.16772 992.373 8.16772C993.511 8.16772 994.42 8.79805 994.856 9.74178H994.892C995.504 8.76284 996.448 8.16772 997.586 8.16772C999.474 8.16772 1000.54 9.39317 1000.54 11.3511V17.3867H998.16V11.7525C998.16 10.7383 997.653 10.2136 996.779 10.2136C995.783 10.2136 995.17 10.9848 995.17 12.1715V17.3832H992.789V11.749C992.789 10.7348 992.282 10.2101 991.408 10.2101C990.447 10.2101 989.798 10.9813 989.798 12.168V17.3797H987.417V8.40718L987.421 8.4107Z" fill="#F2EAE9"/>
<path d="M987.399 19.9635C988.724 19.9635 989.798 18.8897 989.798 17.565C989.798 16.2404 988.724 15.1665 987.399 15.1665C986.074 15.1665 985 16.2404 985 17.565C985 18.8897 986.074 19.9635 987.399 19.9635Z" fill="#F2EAE9"/>
<path d="M1019.76 5.3435C1019.81 5.24108 1019.96 5.23537 1020.02 5.33334L1021.33 7.46221C1021.37 7.53453 1021.47 7.55441 1021.54 7.50565L1023.66 6.01766C1023.76 5.95057 1023.89 6.01607 1023.89 6.13285L1023.98 8.56554C1023.99 8.65368 1024.07 8.7192 1024.15 8.70573L1026.75 8.30416C1026.87 8.28574 1026.96 8.41034 1026.91 8.51753L1025.78 10.6981C1025.74 10.7798 1025.78 10.8797 1025.87 10.9067L1028.34 11.6651C1028.46 11.7012 1028.48 11.8569 1028.38 11.9272L1026.3 13.3782C1026.22 13.4313 1026.21 13.5407 1026.28 13.6053L1028.07 15.3369C1028.16 15.4218 1028.11 15.5705 1027.99 15.5888L1025.4 15.9811C1025.32 15.9946 1025.26 16.0844 1025.29 16.1706L1026.01 18.4943C1026.04 18.6077 1025.93 18.714 1025.82 18.6788L1023.32 17.9021C1023.24 17.8765 1023.15 17.9268 1023.13 18.0111L1022.6 20.4117C1022.57 20.5245 1022.43 20.5661 1022.35 20.4855L1020.52 18.709C1020.46 18.6501 1020.37 18.6539 1020.31 18.7174L1018.63 20.6327C1018.55 20.7195 1018.41 20.6891 1018.38 20.5786L1017.66 18.2275C1017.63 18.1449 1017.54 18.1016 1017.46 18.1336L1015.03 19.1056C1014.92 19.1496 1014.8 19.0521 1014.83 18.9363L1015.36 16.563C1015.38 16.475 1015.32 16.3899 1015.23 16.3835L1012.62 16.1966C1012.5 16.1879 1012.44 16.0434 1012.52 15.9519L1014.17 14.0842C1014.23 14.0146 1014.21 13.9062 1014.13 13.8593L1011.94 12.5772C1011.84 12.5151 1011.85 12.358 1011.96 12.3127L1014.37 11.3617C1014.45 11.3279 1014.49 11.225 1014.44 11.1469L1013.14 9.06184C1013.08 8.95934 1013.16 8.82805 1013.28 8.837L1015.9 9.03211C1015.99 9.03865 1016.06 8.96706 1016.06 8.87893L1015.96 6.44655C1015.96 6.32978 1016.08 6.25406 1016.18 6.31339L1018.42 7.62915C1018.49 7.67227 1018.58 7.64485 1018.62 7.56923L1019.76 5.3435Z" fill="#F2EAE9"/>
<path d="M1052.36 10.8172C1053.82 10.8172 1055 9.63682 1055 8.1808C1055 6.72477 1053.82 5.54443 1052.36 5.54443C1050.91 5.54443 1049.73 6.72477 1049.73 8.1808C1049.73 9.63682 1050.91 10.8172 1052.36 10.8172Z" fill="#F2EAE9"/>
<path d="M1040.42 8.4107H1042.71V9.61853H1042.77C1043.26 8.79805 1044.13 8.16772 1045.37 8.16772C1046.51 8.16772 1047.42 8.79805 1047.86 9.74178H1047.89C1048.5 8.76284 1049.45 8.16772 1050.59 8.16772C1052.47 8.16772 1053.54 9.39317 1053.54 11.3511V17.3867H1051.16V11.7525C1051.16 10.7383 1050.65 10.2136 1049.78 10.2136C1048.78 10.2136 1048.17 10.9848 1048.17 12.1715V17.3832H1045.79V11.749C1045.79 10.7348 1045.28 10.2101 1044.41 10.2101C1043.45 10.2101 1042.8 10.9813 1042.8 12.168V17.3797H1040.42V8.40718L1040.42 8.4107Z" fill="#F2EAE9"/>
<path d="M1040.4 19.9635C1041.72 19.9635 1042.8 18.8897 1042.8 17.565C1042.8 16.2404 1041.72 15.1665 1040.4 15.1665C1039.07 15.1665 1038 16.2404 1038 17.565C1038 18.8897 1039.07 19.9635 1040.4 19.9635Z" fill="#F2EAE9"/>
<path d="M648.761 5.3435C648.813 5.24108 648.957 5.23537 649.018 5.33334L650.328 7.46221C650.373 7.53453 650.469 7.55441 650.539 7.50565L652.66 6.01766C652.756 5.95057 652.888 6.01607 652.893 6.13285L652.985 8.56554C652.988 8.65368 653.068 8.7192 653.155 8.70573L655.753 8.30416C655.872 8.28574 655.962 8.41034 655.907 8.51753L654.783 10.6981C654.741 10.7798 654.783 10.8797 654.871 10.9067L657.339 11.6651C657.457 11.7012 657.481 11.8569 657.38 11.9272L655.298 13.3782C655.222 13.4313 655.213 13.5407 655.28 13.6053L657.071 15.3369C657.159 15.4218 657.111 15.5705 656.991 15.5888L654.405 15.9811C654.316 15.9946 654.26 16.0844 654.286 16.1706L655.006 18.4943C655.041 18.6077 654.934 18.714 654.821 18.6788L652.318 17.9021C652.236 17.8765 652.149 17.9268 652.13 18.0111L651.598 20.4117C651.573 20.5245 651.434 20.5661 651.352 20.4855L649.525 18.709C649.464 18.6501 649.367 18.6539 649.311 18.7174L647.631 20.6327C647.555 20.7195 647.413 20.6891 647.379 20.5786L646.659 18.2275C646.634 18.1449 646.543 18.1016 646.463 18.1336L644.029 19.1056C643.919 19.1496 643.805 19.0521 643.831 18.9363L644.364 16.563C644.384 16.475 644.321 16.3899 644.231 16.3835L641.623 16.1966C641.501 16.1879 641.442 16.0434 641.523 15.9519L643.171 14.0842C643.233 14.0146 643.215 13.9062 643.135 13.8593L640.945 12.5772C640.839 12.5151 640.851 12.358 640.965 12.3127L643.366 11.3617C643.452 11.3279 643.486 11.225 643.437 11.1469L642.145 9.06184C642.081 8.95934 642.161 8.82805 642.281 8.837L644.903 9.03211C644.991 9.03865 645.065 8.96706 645.061 8.87893L644.961 6.44655C644.956 6.32978 645.083 6.25406 645.183 6.31339L647.416 7.62915C647.489 7.67227 647.584 7.64485 647.622 7.56923L648.761 5.3435Z" fill="#F2EAE9"/>
<path d="M681.363 10.8172C682.819 10.8172 684 9.63682 684 8.1808C684 6.72477 682.819 5.54443 681.363 5.54443C679.907 5.54443 678.726 6.72477 678.726 8.1808C678.726 9.63682 679.907 10.8172 681.363 10.8172Z" fill="#F2EAE9"/>
<path d="M669.421 8.4107H671.714V9.61853H671.767C672.257 8.79805 673.13 8.16772 674.374 8.16772C675.511 8.16772 676.42 8.79805 676.857 9.74178H676.892C677.505 8.76284 678.449 8.16772 679.587 8.16772C681.474 8.16772 682.542 9.39317 682.542 11.3511V17.3867H680.161V11.7525C680.161 10.7383 679.653 10.2136 678.78 10.2136C677.783 10.2136 677.17 10.9848 677.17 12.1715V17.3832H674.789V11.749C674.789 10.7348 674.282 10.2101 673.409 10.2101C672.447 10.2101 671.799 10.9813 671.799 12.168V17.3797H669.418V8.40718L669.421 8.4107Z" fill="#F2EAE9"/>
<path d="M669.399 19.9635C670.724 19.9635 671.798 18.8897 671.798 17.565C671.798 16.2404 670.724 15.1665 669.399 15.1665C668.074 15.1665 667 16.2404 667 17.565C667 18.8897 668.074 19.9635 669.399 19.9635Z" fill="#F2EAE9"/>
<path d="M701.761 5.3435C701.813 5.24108 701.957 5.23537 702.018 5.33334L703.328 7.46221C703.373 7.53453 703.469 7.55441 703.539 7.50565L705.66 6.01766C705.756 5.95057 705.888 6.01607 705.893 6.13285L705.985 8.56554C705.988 8.65368 706.068 8.7192 706.155 8.70573L708.753 8.30416C708.872 8.28574 708.962 8.41034 708.907 8.51753L707.783 10.6981C707.741 10.7798 707.783 10.8797 707.871 10.9067L710.339 11.6651C710.457 11.7012 710.481 11.8569 710.38 11.9272L708.298 13.3782C708.222 13.4313 708.213 13.5407 708.28 13.6053L710.071 15.3369C710.159 15.4218 710.111 15.5705 709.991 15.5888L707.405 15.9811C707.316 15.9946 707.26 16.0844 707.286 16.1706L708.006 18.4943C708.041 18.6077 707.934 18.714 707.821 18.6788L705.318 17.9021C705.236 17.8765 705.149 17.9268 705.13 18.0111L704.598 20.4117C704.573 20.5245 704.434 20.5661 704.352 20.4855L702.525 18.709C702.464 18.6501 702.367 18.6539 702.311 18.7174L700.631 20.6327C700.555 20.7195 700.413 20.6891 700.379 20.5786L699.659 18.2275C699.634 18.1449 699.543 18.1016 699.463 18.1336L697.029 19.1056C696.919 19.1496 696.805 19.0521 696.831 18.9363L697.364 16.563C697.384 16.475 697.321 16.3899 697.231 16.3835L694.623 16.1966C694.501 16.1879 694.442 16.0434 694.523 15.9519L696.171 14.0842C696.233 14.0146 696.215 13.9062 696.135 13.8593L693.945 12.5772C693.839 12.5151 693.851 12.358 693.965 12.3127L696.366 11.3617C696.452 11.3279 696.486 11.225 696.437 11.1469L695.145 9.06184C695.081 8.95934 695.161 8.82805 695.281 8.837L697.903 9.03211C697.991 9.03865 698.065 8.96706 698.061 8.87893L697.961 6.44655C697.956 6.32978 698.083 6.25406 698.183 6.31339L700.416 7.62915C700.489 7.67227 700.584 7.64485 700.622 7.56923L701.761 5.3435Z" fill="#F2EAE9"/>
<path d="M734.363 10.8172C735.82 10.8172 737 9.63682 737 8.1808C737 6.72477 735.82 5.54443 734.363 5.54443C732.907 5.54443 731.726 6.72477 731.726 8.1808C731.726 9.63682 732.907 10.8172 734.363 10.8172Z" fill="#F2EAE9"/>
<path d="M722.421 8.4107H724.714V9.61853H724.767C725.257 8.79805 726.13 8.16772 727.374 8.16772C728.511 8.16772 729.42 8.79805 729.857 9.74178H729.892C730.505 8.76284 731.449 8.16772 732.587 8.16772C734.474 8.16772 735.542 9.39317 735.542 11.3511V17.3867H733.161V11.7525C733.161 10.7383 732.653 10.2136 731.78 10.2136C730.783 10.2136 730.17 10.9848 730.17 12.1715V17.3832H727.789V11.749C727.789 10.7348 727.282 10.2101 726.409 10.2101C725.447 10.2101 724.799 10.9813 724.799 12.168V17.3797H722.418V8.40718L722.421 8.4107Z" fill="#F2EAE9"/>
<path d="M722.399 19.9635C723.724 19.9635 724.798 18.8897 724.798 17.565C724.798 16.2404 723.724 15.1665 722.399 15.1665C721.074 15.1665 720 16.2404 720 17.565C720 18.8897 721.074 19.9635 722.399 19.9635Z" fill="#F2EAE9"/>
<path d="M754.761 5.3435C754.813 5.24108 754.957 5.23537 755.018 5.33334L756.328 7.46221C756.373 7.53453 756.469 7.55441 756.539 7.50565L758.66 6.01766C758.756 5.95057 758.888 6.01607 758.893 6.13285L758.985 8.56554C758.988 8.65368 759.068 8.7192 759.155 8.70573L761.753 8.30416C761.872 8.28574 761.962 8.41034 761.907 8.51753L760.783 10.6981C760.741 10.7798 760.783 10.8797 760.871 10.9067L763.339 11.6651C763.457 11.7012 763.481 11.8569 763.38 11.9272L761.298 13.3782C761.222 13.4313 761.213 13.5407 761.28 13.6053L763.071 15.3369C763.159 15.4218 763.111 15.5705 762.991 15.5888L760.405 15.9811C760.316 15.9946 760.26 16.0844 760.286 16.1706L761.006 18.4943C761.041 18.6077 760.934 18.714 760.821 18.6788L758.318 17.9021C758.236 17.8765 758.149 17.9268 758.13 18.0111L757.598 20.4117C757.573 20.5245 757.434 20.5661 757.352 20.4855L755.525 18.709C755.464 18.6501 755.367 18.6539 755.311 18.7174L753.631 20.6327C753.555 20.7195 753.413 20.6891 753.379 20.5786L752.659 18.2275C752.634 18.1449 752.543 18.1016 752.463 18.1336L750.029 19.1056C749.919 19.1496 749.805 19.0521 749.831 18.9363L750.364 16.563C750.384 16.475 750.321 16.3899 750.231 16.3835L747.623 16.1966C747.501 16.1879 747.442 16.0434 747.523 15.9519L749.171 14.0842C749.233 14.0146 749.215 13.9062 749.135 13.8593L746.945 12.5772C746.839 12.5151 746.851 12.358 746.965 12.3127L749.366 11.3617C749.452 11.3279 749.486 11.225 749.437 11.1469L748.145 9.06184C748.081 8.95934 748.161 8.82805 748.281 8.837L750.903 9.03211C750.991 9.03865 751.065 8.96706 751.061 8.87893L750.961 6.44655C750.956 6.32978 751.083 6.25406 751.183 6.31339L753.416 7.62915C753.489 7.67227 753.584 7.64485 753.622 7.56923L754.761 5.3435Z" fill="#F2EAE9"/>
<path d="M787.363 10.8172C788.82 10.8172 790 9.63682 790 8.1808C790 6.72477 788.82 5.54443 787.363 5.54443C785.907 5.54443 784.726 6.72477 784.726 8.1808C784.726 9.63682 785.907 10.8172 787.363 10.8172Z" fill="#F2EAE9"/>
<path d="M775.421 8.4107H777.714V9.61853H777.767C778.257 8.79805 779.13 8.16772 780.374 8.16772C781.511 8.16772 782.42 8.79805 782.857 9.74178H782.892C783.505 8.76284 784.449 8.16772 785.587 8.16772C787.474 8.16772 788.542 9.39317 788.542 11.3511V17.3867H786.161V11.7525C786.161 10.7383 785.653 10.2136 784.78 10.2136C783.783 10.2136 783.17 10.9848 783.17 12.1715V17.3832H780.789V11.749C780.789 10.7348 780.282 10.2101 779.409 10.2101C778.447 10.2101 777.799 10.9813 777.799 12.168V17.3797H775.418V8.40718L775.421 8.4107Z" fill="#F2EAE9"/>
<path d="M775.399 19.9635C776.724 19.9635 777.798 18.8897 777.798 17.565C777.798 16.2404 776.724 15.1665 775.399 15.1665C774.074 15.1665 773 16.2404 773 17.565C773 18.8897 774.074 19.9635 775.399 19.9635Z" fill="#F2EAE9"/>
<path d="M807.761 5.3435C807.813 5.24108 807.957 5.23537 808.018 5.33334L809.328 7.46221C809.373 7.53453 809.469 7.55441 809.539 7.50565L811.66 6.01766C811.756 5.95057 811.888 6.01607 811.893 6.13285L811.985 8.56554C811.988 8.65368 812.068 8.7192 812.155 8.70573L814.753 8.30416C814.872 8.28574 814.962 8.41034 814.907 8.51753L813.783 10.6981C813.741 10.7798 813.783 10.8797 813.871 10.9067L816.339 11.6651C816.457 11.7012 816.481 11.8569 816.38 11.9272L814.298 13.3782C814.222 13.4313 814.213 13.5407 814.28 13.6053L816.071 15.3369C816.159 15.4218 816.111 15.5705 815.991 15.5888L813.405 15.9811C813.316 15.9946 813.26 16.0844 813.286 16.1706L814.006 18.4943C814.041 18.6077 813.934 18.714 813.821 18.6788L811.318 17.9021C811.236 17.8765 811.149 17.9268 811.13 18.0111L810.598 20.4117C810.573 20.5245 810.434 20.5661 810.352 20.4855L808.525 18.709C808.464 18.6501 808.367 18.6539 808.311 18.7174L806.631 20.6327C806.555 20.7195 806.413 20.6891 806.379 20.5786L805.659 18.2275C805.634 18.1449 805.543 18.1016 805.463 18.1336L803.029 19.1056C802.919 19.1496 802.805 19.0521 802.831 18.9363L803.364 16.563C803.384 16.475 803.321 16.3899 803.231 16.3835L800.623 16.1966C800.501 16.1879 800.442 16.0434 800.523 15.9519L802.171 14.0842C802.233 14.0146 802.215 13.9062 802.135 13.8593L799.945 12.5772C799.839 12.5151 799.851 12.358 799.965 12.3127L802.366 11.3617C802.452 11.3279 802.486 11.225 802.437 11.1469L801.145 9.06184C801.081 8.95934 801.161 8.82805 801.281 8.837L803.903 9.03211C803.991 9.03865 804.065 8.96706 804.061 8.87893L803.961 6.44655C803.956 6.32978 804.083 6.25406 804.183 6.31339L806.416 7.62915C806.489 7.67227 806.584 7.64485 806.622 7.56923L807.761 5.3435Z" fill="#F2EAE9"/>
<path d="M840.363 10.8172C841.82 10.8172 843 9.63682 843 8.1808C843 6.72477 841.82 5.54443 840.363 5.54443C838.907 5.54443 837.726 6.72477 837.726 8.1808C837.726 9.63682 838.907 10.8172 840.363 10.8172Z" fill="#F2EAE9"/>
<path d="M828.421 8.4107H830.714V9.61853H830.767C831.257 8.79805 832.13 8.16772 833.374 8.16772C834.511 8.16772 835.42 8.79805 835.857 9.74178H835.892C836.505 8.76284 837.449 8.16772 838.587 8.16772C840.474 8.16772 841.542 9.39317 841.542 11.3511V17.3867H839.161V11.7525C839.161 10.7383 838.653 10.2136 837.78 10.2136C836.783 10.2136 836.17 10.9848 836.17 12.1715V17.3832H833.789V11.749C833.789 10.7348 833.282 10.2101 832.409 10.2101C831.447 10.2101 830.799 10.9813 830.799 12.168V17.3797H828.418V8.40718L828.421 8.4107Z" fill="#F2EAE9"/>
<path d="M828.399 19.9635C829.724 19.9635 830.798 18.8897 830.798 17.565C830.798 16.2404 829.724 15.1665 828.399 15.1665C827.074 15.1665 826 16.2404 826 17.565C826 18.8897 827.074 19.9635 828.399 19.9635Z" fill="#F2EAE9"/>
<path d="M436.76 5.3435C436.813 5.24108 436.957 5.23537 437.017 5.33334L438.328 7.46221C438.372 7.53453 438.469 7.55441 438.538 7.50565L440.66 6.01766C440.756 5.95057 440.888 6.01607 440.892 6.13285L440.984 8.56554C440.988 8.65368 441.067 8.7192 441.154 8.70573L443.753 8.30416C443.872 8.28574 443.962 8.41034 443.906 8.51753L442.782 10.6981C442.74 10.7798 442.782 10.8797 442.87 10.9067L445.339 11.6651C445.456 11.7012 445.481 11.8569 445.38 11.9272L443.298 13.3782C443.222 13.4313 443.213 13.5407 443.28 13.6053L445.071 15.3369C445.158 15.4218 445.111 15.5705 444.99 15.5888L442.404 15.9811C442.315 15.9946 442.259 16.0844 442.286 16.1706L443.005 18.4943C443.04 18.6077 442.934 18.714 442.82 18.6788L440.317 17.9021C440.235 17.8765 440.148 17.9268 440.13 18.0111L439.598 20.4117C439.573 20.5245 439.434 20.5661 439.351 20.4855L437.525 18.709C437.464 18.6501 437.366 18.6539 437.311 18.7174L435.63 20.6327C435.554 20.7195 435.412 20.6891 435.378 20.5786L434.659 18.2275C434.633 18.1449 434.543 18.1016 434.463 18.1336L432.029 19.1056C431.919 19.1496 431.804 19.0521 431.83 18.9363L432.364 16.563C432.384 16.475 432.321 16.3899 432.231 16.3835L429.622 16.1966C429.5 16.1879 429.441 16.0434 429.522 15.9519L431.171 14.0842C431.232 14.0146 431.215 13.9062 431.135 13.8593L428.945 12.5772C428.838 12.5151 428.85 12.358 428.965 12.3127L431.366 11.3617C431.451 11.3279 431.485 11.225 431.437 11.1469L430.144 9.06184C430.081 8.95934 430.16 8.82805 430.28 8.837L432.902 9.03211C432.99 9.03865 433.064 8.96706 433.061 8.87893L432.96 6.44655C432.956 6.32978 433.082 6.25406 433.183 6.31339L435.416 7.62915C435.489 7.67227 435.583 7.64485 435.622 7.56923L436.76 5.3435Z" fill="#F2EAE9"/>
<path d="M469.363 10.8172C470.819 10.8172 472 9.63682 472 8.1808C472 6.72477 470.819 5.54443 469.363 5.54443C467.906 5.54443 466.726 6.72477 466.726 8.1808C466.726 9.63682 467.906 10.8172 469.363 10.8172Z" fill="#F2EAE9"/>
<path d="M457.421 8.4107H459.714V9.61853H459.767C460.256 8.79805 461.13 8.16772 462.373 8.16772C463.511 8.16772 464.42 8.79805 464.856 9.74178H464.892C465.504 8.76284 466.448 8.16772 467.586 8.16772C469.474 8.16772 470.541 9.39317 470.541 11.3511V17.3867H468.16V11.7525C468.16 10.7383 467.653 10.2136 466.779 10.2136C465.783 10.2136 465.17 10.9848 465.17 12.1715V17.3832H462.789V11.749C462.789 10.7348 462.282 10.2101 461.408 10.2101C460.447 10.2101 459.798 10.9813 459.798 12.168V17.3797H457.417V8.40718L457.421 8.4107Z" fill="#F2EAE9"/>
<path d="M457.399 19.9635C458.724 19.9635 459.798 18.8897 459.798 17.565C459.798 16.2404 458.724 15.1665 457.399 15.1665C456.074 15.1665 455 16.2404 455 17.565C455 18.8897 456.074 19.9635 457.399 19.9635Z" fill="#F2EAE9"/>
<path d="M489.76 5.3435C489.813 5.24108 489.957 5.23537 490.017 5.33334L491.328 7.46221C491.372 7.53453 491.469 7.55441 491.538 7.50565L493.66 6.01766C493.756 5.95057 493.888 6.01607 493.892 6.13285L493.984 8.56554C493.988 8.65368 494.067 8.7192 494.154 8.70573L496.753 8.30416C496.872 8.28574 496.962 8.41034 496.906 8.51753L495.782 10.6981C495.74 10.7798 495.782 10.8797 495.87 10.9067L498.339 11.6651C498.456 11.7012 498.481 11.8569 498.38 11.9272L496.298 13.3782C496.222 13.4313 496.213 13.5407 496.28 13.6053L498.071 15.3369C498.158 15.4218 498.111 15.5705 497.99 15.5888L495.404 15.9811C495.315 15.9946 495.259 16.0844 495.286 16.1706L496.005 18.4943C496.04 18.6077 495.934 18.714 495.82 18.6788L493.317 17.9021C493.235 17.8765 493.148 17.9268 493.13 18.0111L492.598 20.4117C492.573 20.5245 492.434 20.5661 492.351 20.4855L490.525 18.709C490.464 18.6501 490.366 18.6539 490.311 18.7174L488.63 20.6327C488.554 20.7195 488.412 20.6891 488.378 20.5786L487.659 18.2275C487.633 18.1449 487.543 18.1016 487.463 18.1336L485.029 19.1056C484.919 19.1496 484.804 19.0521 484.83 18.9363L485.364 16.563C485.384 16.475 485.321 16.3899 485.231 16.3835L482.622 16.1966C482.5 16.1879 482.441 16.0434 482.522 15.9519L484.171 14.0842C484.232 14.0146 484.215 13.9062 484.135 13.8593L481.945 12.5772C481.838 12.5151 481.85 12.358 481.965 12.3127L484.366 11.3617C484.451 11.3279 484.485 11.225 484.437 11.1469L483.144 9.06184C483.081 8.95934 483.16 8.82805 483.28 8.837L485.902 9.03211C485.99 9.03865 486.064 8.96706 486.061 8.87893L485.96 6.44655C485.956 6.32978 486.082 6.25406 486.183 6.31339L488.416 7.62915C488.489 7.67227 488.583 7.64485 488.622 7.56923L489.76 5.3435Z" fill="#F2EAE9"/>
<path d="M522.363 10.8172C523.819 10.8172 525 9.63682 525 8.1808C525 6.72477 523.819 5.54443 522.363 5.54443C520.906 5.54443 519.726 6.72477 519.726 8.1808C519.726 9.63682 520.906 10.8172 522.363 10.8172Z" fill="#F2EAE9"/>
<path d="M510.421 8.4107H512.714V9.61853H512.767C513.256 8.79805 514.13 8.16772 515.373 8.16772C516.511 8.16772 517.42 8.79805 517.856 9.74178H517.892C518.504 8.76284 519.448 8.16772 520.586 8.16772C522.474 8.16772 523.541 9.39317 523.541 11.3511V17.3867H521.16V11.7525C521.16 10.7383 520.653 10.2136 519.779 10.2136C518.783 10.2136 518.17 10.9848 518.17 12.1715V17.3832H515.789V11.749C515.789 10.7348 515.282 10.2101 514.408 10.2101C513.447 10.2101 512.798 10.9813 512.798 12.168V17.3797H510.417V8.40718L510.421 8.4107Z" fill="#F2EAE9"/>
<path d="M510.399 19.9635C511.724 19.9635 512.798 18.8897 512.798 17.565C512.798 16.2404 511.724 15.1665 510.399 15.1665C509.074 15.1665 508 16.2404 508 17.565C508 18.8897 509.074 19.9635 510.399 19.9635Z" fill="#F2EAE9"/>
<path d="M542.76 5.3435C542.813 5.24108 542.957 5.23537 543.017 5.33334L544.328 7.46221C544.373 7.53453 544.469 7.55441 544.538 7.50565L546.66 6.01766C546.756 5.95057 546.888 6.01607 546.892 6.13285L546.985 8.56554C546.988 8.65368 547.067 8.7192 547.155 8.70573L549.753 8.30416C549.872 8.28574 549.962 8.41034 549.907 8.51753L548.783 10.6981C548.741 10.7798 548.783 10.8797 548.87 10.9067L551.339 11.6651C551.456 11.7012 551.481 11.8569 551.38 11.9272L549.298 13.3782C549.222 13.4313 549.213 13.5407 549.28 13.6053L551.071 15.3369C551.159 15.4218 551.111 15.5705 550.99 15.5888L548.405 15.9811C548.316 15.9946 548.259 16.0844 548.286 16.1706L549.005 18.4943C549.04 18.6077 548.934 18.714 548.821 18.6788L546.318 17.9021C546.235 17.8765 546.149 17.9268 546.13 18.0111L545.598 20.4117C545.573 20.5245 545.434 20.5661 545.351 20.4855L543.525 18.709C543.464 18.6501 543.367 18.6539 543.311 18.7174L541.631 20.6327C541.554 20.7195 541.412 20.6891 541.379 20.5786L540.659 18.2275C540.634 18.1449 540.543 18.1016 540.463 18.1336L538.029 19.1056C537.919 19.1496 537.805 19.0521 537.831 18.9363L538.364 16.563C538.384 16.475 538.321 16.3899 538.231 16.3835L535.622 16.1966C535.501 16.1879 535.441 16.0434 535.522 15.9519L537.171 14.0842C537.232 14.0146 537.215 13.9062 537.135 13.8593L534.945 12.5772C534.839 12.5151 534.851 12.358 534.965 12.3127L537.366 11.3617C537.451 11.3279 537.485 11.225 537.437 11.1469L536.144 9.06184C536.081 8.95934 536.16 8.82805 536.281 8.837L538.902 9.03211C538.99 9.03865 539.064 8.96706 539.061 8.87893L538.961 6.44655C538.956 6.32978 539.082 6.25406 539.183 6.31339L541.416 7.62915C541.489 7.67227 541.583 7.64485 541.622 7.56923L542.76 5.3435Z" fill="#F2EAE9"/>
<path d="M575.363 10.8172C576.819 10.8172 578 9.63682 578 8.1808C578 6.72477 576.819 5.54443 575.363 5.54443C573.907 5.54443 572.726 6.72477 572.726 8.1808C572.726 9.63682 573.907 10.8172 575.363 10.8172Z" fill="#F2EAE9"/>
<path d="M563.421 8.4107H565.714V9.61853H565.767C566.257 8.79805 567.13 8.16772 568.373 8.16772C569.511 8.16772 570.42 8.79805 570.857 9.74178H570.892C571.505 8.76284 572.449 8.16772 573.586 8.16772C575.474 8.16772 576.541 9.39317 576.541 11.3511V17.3867H574.16V11.7525C574.16 10.7383 573.653 10.2136 572.78 10.2136C571.783 10.2136 571.17 10.9848 571.17 12.1715V17.3832H568.789V11.749C568.789 10.7348 568.282 10.2101 567.408 10.2101C566.447 10.2101 565.799 10.9813 565.799 12.168V17.3797H563.418V8.40718L563.421 8.4107Z" fill="#F2EAE9"/>
<path d="M563.399 19.9635C564.724 19.9635 565.798 18.8897 565.798 17.565C565.798 16.2404 564.724 15.1665 563.399 15.1665C562.074 15.1665 561 16.2404 561 17.565C561 18.8897 562.074 19.9635 563.399 19.9635Z" fill="#F2EAE9"/>
<path d="M595.761 5.3435C595.813 5.24108 595.957 5.23537 596.018 5.33334L597.328 7.46221C597.373 7.53453 597.469 7.55441 597.539 7.50565L599.66 6.01766C599.756 5.95057 599.888 6.01607 599.893 6.13285L599.985 8.56554C599.988 8.65368 600.068 8.7192 600.155 8.70573L602.753 8.30416C602.872 8.28574 602.962 8.41034 602.907 8.51753L601.783 10.6981C601.741 10.7798 601.783 10.8797 601.871 10.9067L604.339 11.6651C604.457 11.7012 604.481 11.8569 604.38 11.9272L602.298 13.3782C602.222 13.4313 602.213 13.5407 602.28 13.6053L604.071 15.3369C604.159 15.4218 604.111 15.5705 603.991 15.5888L601.405 15.9811C601.316 15.9946 601.26 16.0844 601.286 16.1706L602.006 18.4943C602.041 18.6077 601.934 18.714 601.821 18.6788L599.318 17.9021C599.236 17.8765 599.149 17.9268 599.13 18.0111L598.598 20.4117C598.573 20.5245 598.434 20.5661 598.352 20.4855L596.525 18.709C596.464 18.6501 596.367 18.6539 596.311 18.7174L594.631 20.6327C594.555 20.7195 594.413 20.6891 594.379 20.5786L593.659 18.2275C593.634 18.1449 593.543 18.1016 593.463 18.1336L591.029 19.1056C590.919 19.1496 590.805 19.0521 590.831 18.9363L591.364 16.563C591.384 16.475 591.321 16.3899 591.231 16.3835L588.623 16.1966C588.501 16.1879 588.442 16.0434 588.523 15.9519L590.171 14.0842C590.233 14.0146 590.215 13.9062 590.135 13.8593L587.945 12.5772C587.839 12.5151 587.851 12.358 587.965 12.3127L590.366 11.3617C590.452 11.3279 590.486 11.225 590.437 11.1469L589.145 9.06184C589.081 8.95934 589.161 8.82805 589.281 8.837L591.903 9.03211C591.991 9.03865 592.065 8.96706 592.061 8.87893L591.961 6.44655C591.956 6.32978 592.083 6.25406 592.183 6.31339L594.416 7.62915C594.489 7.67227 594.584 7.64485 594.622 7.56923L595.761 5.3435Z" fill="#F2EAE9"/>
<path d="M628.363 10.8172C629.819 10.8172 631 9.63682 631 8.1808C631 6.72477 629.819 5.54443 628.363 5.54443C626.907 5.54443 625.726 6.72477 625.726 8.1808C625.726 9.63682 626.907 10.8172 628.363 10.8172Z" fill="#F2EAE9"/>
<path d="M616.421 8.4107H618.714V9.61853H618.767C619.257 8.79805 620.13 8.16772 621.373 8.16772C622.511 8.16772 623.42 8.79805 623.857 9.74178H623.892C624.505 8.76284 625.449 8.16772 626.586 8.16772C628.474 8.16772 629.541 9.39317 629.541 11.3511V17.3867H627.16V11.7525C627.16 10.7383 626.653 10.2136 625.78 10.2136C624.783 10.2136 624.17 10.9848 624.17 12.1715V17.3832H621.789V11.749C621.789 10.7348 621.282 10.2101 620.408 10.2101C619.447 10.2101 618.799 10.9813 618.799 12.168V17.3797H616.418V8.40718L616.421 8.4107Z" fill="#F2EAE9"/>
<path d="M616.399 19.9635C617.724 19.9635 618.798 18.8897 618.798 17.565C618.798 16.2404 617.724 15.1665 616.399 15.1665C615.074 15.1665 614 16.2404 614 17.565C614 18.8897 615.074 19.9635 616.399 19.9635Z" fill="#F2EAE9"/>
<path d="M224.76 5.3435C224.813 5.24108 224.957 5.23537 225.017 5.33334L226.328 7.46221C226.373 7.53453 226.469 7.55441 226.538 7.50565L228.66 6.01766C228.756 5.95057 228.888 6.01607 228.892 6.13285L228.985 8.56554C228.988 8.65368 229.067 8.7192 229.155 8.70573L231.753 8.30416C231.872 8.28574 231.962 8.41034 231.907 8.51753L230.783 10.6981C230.741 10.7798 230.783 10.8797 230.87 10.9067L233.339 11.6651C233.456 11.7012 233.481 11.8569 233.38 11.9272L231.298 13.3782C231.222 13.4313 231.213 13.5407 231.28 13.6053L233.071 15.3369C233.159 15.4218 233.111 15.5705 232.99 15.5888L230.405 15.9811C230.316 15.9946 230.259 16.0844 230.286 16.1706L231.005 18.4943C231.04 18.6077 230.934 18.714 230.821 18.6788L228.318 17.9021C228.235 17.8765 228.149 17.9268 228.13 18.0111L227.598 20.4117C227.573 20.5245 227.434 20.5661 227.351 20.4855L225.525 18.709C225.464 18.6501 225.367 18.6539 225.311 18.7174L223.631 20.6327C223.554 20.7195 223.412 20.6891 223.379 20.5786L222.659 18.2275C222.634 18.1449 222.543 18.1016 222.463 18.1336L220.029 19.1056C219.919 19.1496 219.805 19.0521 219.831 18.9363L220.364 16.563C220.384 16.475 220.321 16.3899 220.231 16.3835L217.622 16.1966C217.501 16.1879 217.441 16.0434 217.522 15.9519L219.171 14.0842C219.232 14.0146 219.215 13.9062 219.135 13.8593L216.945 12.5772C216.839 12.5151 216.851 12.358 216.965 12.3127L219.366 11.3617C219.451 11.3279 219.485 11.225 219.437 11.1469L218.144 9.06184C218.081 8.95934 218.16 8.82805 218.281 8.837L220.902 9.03211C220.99 9.03865 221.064 8.96706 221.061 8.87893L220.961 6.44655C220.956 6.32978 221.082 6.25406 221.183 6.31339L223.416 7.62915C223.489 7.67227 223.583 7.64485 223.622 7.56923L224.76 5.3435Z" fill="#F2EAE9"/>
<path d="M257.363 10.8172C258.819 10.8172 260 9.63682 260 8.1808C260 6.72477 258.819 5.54443 257.363 5.54443C255.907 5.54443 254.726 6.72477 254.726 8.1808C254.726 9.63682 255.907 10.8172 257.363 10.8172Z" fill="#F2EAE9"/>
<path d="M245.421 8.4107H247.714V9.61853H247.767C248.257 8.79805 249.13 8.16772 250.373 8.16772C251.511 8.16772 252.42 8.79805 252.857 9.74178H252.892C253.505 8.76284 254.449 8.16772 255.586 8.16772C257.474 8.16772 258.541 9.39317 258.541 11.3511V17.3867H256.16V11.7525C256.16 10.7383 255.653 10.2136 254.78 10.2136C253.783 10.2136 253.17 10.9848 253.17 12.1715V17.3832H250.789V11.749C250.789 10.7348 250.282 10.2101 249.408 10.2101C248.447 10.2101 247.799 10.9813 247.799 12.168V17.3797H245.418V8.40718L245.421 8.4107Z" fill="#F2EAE9"/>
<path d="M245.399 19.9635C246.724 19.9635 247.798 18.8897 247.798 17.565C247.798 16.2404 246.724 15.1665 245.399 15.1665C244.074 15.1665 243 16.2404 243 17.565C243 18.8897 244.074 19.9635 245.399 19.9635Z" fill="#F2EAE9"/>
<path d="M277.76 5.3435C277.813 5.24108 277.957 5.23537 278.017 5.33334L279.328 7.46221C279.373 7.53453 279.469 7.55441 279.538 7.50565L281.66 6.01766C281.756 5.95057 281.888 6.01607 281.892 6.13285L281.985 8.56554C281.988 8.65368 282.067 8.7192 282.155 8.70573L284.753 8.30416C284.872 8.28574 284.962 8.41034 284.907 8.51753L283.783 10.6981C283.741 10.7798 283.783 10.8797 283.87 10.9067L286.339 11.6651C286.456 11.7012 286.481 11.8569 286.38 11.9272L284.298 13.3782C284.222 13.4313 284.213 13.5407 284.28 13.6053L286.071 15.3369C286.159 15.4218 286.111 15.5705 285.99 15.5888L283.405 15.9811C283.316 15.9946 283.259 16.0844 283.286 16.1706L284.005 18.4943C284.04 18.6077 283.934 18.714 283.821 18.6788L281.318 17.9021C281.235 17.8765 281.149 17.9268 281.13 18.0111L280.598 20.4117C280.573 20.5245 280.434 20.5661 280.351 20.4855L278.525 18.709C278.464 18.6501 278.367 18.6539 278.311 18.7174L276.631 20.6327C276.554 20.7195 276.412 20.6891 276.379 20.5786L275.659 18.2275C275.634 18.1449 275.543 18.1016 275.463 18.1336L273.029 19.1056C272.919 19.1496 272.805 19.0521 272.831 18.9363L273.364 16.563C273.384 16.475 273.321 16.3899 273.231 16.3835L270.622 16.1966C270.501 16.1879 270.441 16.0434 270.522 15.9519L272.171 14.0842C272.232 14.0146 272.215 13.9062 272.135 13.8593L269.945 12.5772C269.839 12.5151 269.851 12.358 269.965 12.3127L272.366 11.3617C272.451 11.3279 272.485 11.225 272.437 11.1469L271.144 9.06184C271.081 8.95934 271.16 8.82805 271.281 8.837L273.902 9.03211C273.99 9.03865 274.064 8.96706 274.061 8.87893L273.961 6.44655C273.956 6.32978 274.082 6.25406 274.183 6.31339L276.416 7.62915C276.489 7.67227 276.583 7.64485 276.622 7.56923L277.76 5.3435Z" fill="#F2EAE9"/>
<path d="M310.363 10.8172C311.819 10.8172 313 9.63682 313 8.1808C313 6.72477 311.819 5.54443 310.363 5.54443C308.907 5.54443 307.726 6.72477 307.726 8.1808C307.726 9.63682 308.907 10.8172 310.363 10.8172Z" fill="#F2EAE9"/>
<path d="M298.421 8.4107H300.714V9.61853H300.767C301.256 8.79805 302.13 8.16772 303.373 8.16772C304.511 8.16772 305.42 8.79805 305.856 9.74178H305.892C306.504 8.76284 307.448 8.16772 308.586 8.16772C310.474 8.16772 311.541 9.39317 311.541 11.3511V17.3867H309.16V11.7525C309.16 10.7383 308.653 10.2136 307.779 10.2136C306.783 10.2136 306.17 10.9848 306.17 12.1715V17.3832H303.789V11.749C303.789 10.7348 303.282 10.2101 302.408 10.2101C301.447 10.2101 300.798 10.9813 300.798 12.168V17.3797H298.417V8.40718L298.421 8.4107Z" fill="#F2EAE9"/>
<path d="M298.399 19.9635C299.724 19.9635 300.798 18.8897 300.798 17.565C300.798 16.2404 299.724 15.1665 298.399 15.1665C297.074 15.1665 296 16.2404 296 17.565C296 18.8897 297.074 19.9635 298.399 19.9635Z" fill="#F2EAE9"/>
<path d="M330.76 5.3435C330.813 5.24108 330.957 5.23537 331.017 5.33334L332.328 7.46221C332.373 7.53453 332.469 7.55441 332.538 7.50565L334.66 6.01766C334.756 5.95057 334.888 6.01607 334.892 6.13285L334.985 8.56554C334.988 8.65368 335.067 8.7192 335.155 8.70573L337.753 8.30416C337.872 8.28574 337.962 8.41034 337.907 8.51753L336.783 10.6981C336.741 10.7798 336.783 10.8797 336.87 10.9067L339.339 11.6651C339.456 11.7012 339.481 11.8569 339.38 11.9272L337.298 13.3782C337.222 13.4313 337.213 13.5407 337.28 13.6053L339.071 15.3369C339.159 15.4218 339.111 15.5705 338.99 15.5888L336.405 15.9811C336.316 15.9946 336.259 16.0844 336.286 16.1706L337.005 18.4943C337.04 18.6077 336.934 18.714 336.821 18.6788L334.318 17.9021C334.235 17.8765 334.149 17.9268 334.13 18.0111L333.598 20.4117C333.573 20.5245 333.434 20.5661 333.351 20.4855L331.525 18.709C331.464 18.6501 331.367 18.6539 331.311 18.7174L329.631 20.6327C329.554 20.7195 329.412 20.6891 329.379 20.5786L328.659 18.2275C328.634 18.1449 328.543 18.1016 328.463 18.1336L326.029 19.1056C325.919 19.1496 325.805 19.0521 325.831 18.9363L326.364 16.563C326.384 16.475 326.321 16.3899 326.231 16.3835L323.622 16.1966C323.501 16.1879 323.441 16.0434 323.522 15.9519L325.171 14.0842C325.232 14.0146 325.215 13.9062 325.135 13.8593L322.945 12.5772C322.839 12.5151 322.851 12.358 322.965 12.3127L325.366 11.3617C325.451 11.3279 325.485 11.225 325.437 11.1469L324.144 9.06184C324.081 8.95934 324.16 8.82805 324.281 8.837L326.902 9.03211C326.99 9.03865 327.064 8.96706 327.061 8.87893L326.961 6.44655C326.956 6.32978 327.082 6.25406 327.183 6.31339L329.416 7.62915C329.489 7.67227 329.583 7.64485 329.622 7.56923L330.76 5.3435Z" fill="#F2EAE9"/>
<path d="M363.363 10.8172C364.819 10.8172 366 9.63682 366 8.1808C366 6.72477 364.819 5.54443 363.363 5.54443C361.907 5.54443 360.726 6.72477 360.726 8.1808C360.726 9.63682 361.907 10.8172 363.363 10.8172Z" fill="#F2EAE9"/>
<path d="M351.421 8.4107H353.714V9.61853H353.767C354.256 8.79805 355.13 8.16772 356.373 8.16772C357.511 8.16772 358.42 8.79805 358.856 9.74178H358.892C359.504 8.76284 360.448 8.16772 361.586 8.16772C363.474 8.16772 364.541 9.39317 364.541 11.3511V17.3867H362.16V11.7525C362.16 10.7383 361.653 10.2136 360.779 10.2136C359.783 10.2136 359.17 10.9848 359.17 12.1715V17.3832H356.789V11.749C356.789 10.7348 356.282 10.2101 355.408 10.2101C354.447 10.2101 353.798 10.9813 353.798 12.168V17.3797H351.417V8.40718L351.421 8.4107Z" fill="#F2EAE9"/>
<path d="M351.399 19.9635C352.724 19.9635 353.798 18.8897 353.798 17.565C353.798 16.2404 352.724 15.1665 351.399 15.1665C350.074 15.1665 349 16.2404 349 17.565C349 18.8897 350.074 19.9635 351.399 19.9635Z" fill="#F2EAE9"/>
<path d="M383.76 5.3435C383.813 5.24108 383.957 5.23537 384.017 5.33334L385.328 7.46221C385.373 7.53453 385.469 7.55441 385.538 7.50565L387.66 6.01766C387.756 5.95057 387.888 6.01607 387.892 6.13285L387.985 8.56554C387.988 8.65368 388.067 8.7192 388.155 8.70573L390.753 8.30416C390.872 8.28574 390.962 8.41034 390.907 8.51753L389.783 10.6981C389.741 10.7798 389.783 10.8797 389.87 10.9067L392.339 11.6651C392.456 11.7012 392.481 11.8569 392.38 11.9272L390.298 13.3782C390.222 13.4313 390.213 13.5407 390.28 13.6053L392.071 15.3369C392.159 15.4218 392.111 15.5705 391.99 15.5888L389.405 15.9811C389.316 15.9946 389.259 16.0844 389.286 16.1706L390.005 18.4943C390.04 18.6077 389.934 18.714 389.821 18.6788L387.318 17.9021C387.235 17.8765 387.149 17.9268 387.13 18.0111L386.598 20.4117C386.573 20.5245 386.434 20.5661 386.351 20.4855L384.525 18.709C384.464 18.6501 384.367 18.6539 384.311 18.7174L382.631 20.6327C382.554 20.7195 382.412 20.6891 382.379 20.5786L381.659 18.2275C381.634 18.1449 381.543 18.1016 381.463 18.1336L379.029 19.1056C378.919 19.1496 378.805 19.0521 378.831 18.9363L379.364 16.563C379.384 16.475 379.321 16.3899 379.231 16.3835L376.622 16.1966C376.501 16.1879 376.441 16.0434 376.522 15.9519L378.171 14.0842C378.232 14.0146 378.215 13.9062 378.135 13.8593L375.945 12.5772C375.839 12.5151 375.851 12.358 375.965 12.3127L378.366 11.3617C378.451 11.3279 378.485 11.225 378.437 11.1469L377.144 9.06184C377.081 8.95934 377.16 8.82805 377.281 8.837L379.902 9.03211C379.99 9.03865 380.064 8.96706 380.061 8.87893L379.961 6.44655C379.956 6.32978 380.082 6.25406 380.183 6.31339L382.416 7.62915C382.489 7.67227 382.583 7.64485 382.622 7.56923L383.76 5.3435Z" fill="#F2EAE9"/>
<path d="M416.363 10.8172C417.819 10.8172 419 9.63682 419 8.1808C419 6.72477 417.819 5.54443 416.363 5.54443C414.907 5.54443 413.726 6.72477 413.726 8.1808C413.726 9.63682 414.907 10.8172 416.363 10.8172Z" fill="#F2EAE9"/>
<path d="M404.421 8.4107H406.714V9.61853H406.767C407.256 8.79805 408.13 8.16772 409.373 8.16772C410.511 8.16772 411.42 8.79805 411.856 9.74178H411.892C412.504 8.76284 413.448 8.16772 414.586 8.16772C416.474 8.16772 417.541 9.39317 417.541 11.3511V17.3867H415.16V11.7525C415.16 10.7383 414.653 10.2136 413.779 10.2136C412.783 10.2136 412.17 10.9848 412.17 12.1715V17.3832H409.789V11.749C409.789 10.7348 409.282 10.2101 408.408 10.2101C407.447 10.2101 406.798 10.9813 406.798 12.168V17.3797H404.417V8.40718L404.421 8.4107Z" fill="#F2EAE9"/>
<path d="M404.399 19.9635C405.724 19.9635 406.798 18.8897 406.798 17.565C406.798 16.2404 405.724 15.1665 404.399 15.1665C403.074 15.1665 402 16.2404 402 17.565C402 18.8897 403.074 19.9635 404.399 19.9635Z" fill="#F2EAE9"/>
<path d="M12.7604 5.3435C12.8128 5.24108 12.9571 5.23537 13.0174 5.33334L14.328 7.46221C14.3726 7.53453 14.4688 7.55441 14.5384 7.50565L16.6602 6.01766C16.7559 5.95057 16.8879 6.01607 16.8923 6.13285L16.9847 8.56554C16.988 8.65368 17.0674 8.7192 17.1546 8.70573L19.7529 8.30416C19.872 8.28574 19.9618 8.41034 19.9065 8.51753L18.7826 10.6981C18.7405 10.7798 18.7826 10.8797 18.8704 10.9067L21.3389 11.6651C21.4564 11.7012 21.4808 11.8569 21.3799 11.9272L19.2979 13.3782C19.2218 13.4313 19.213 13.5407 19.2798 13.6053L21.0708 15.3369C21.1585 15.4218 21.1111 15.5705 20.9903 15.5888L18.4047 15.9811C18.3155 15.9946 18.2593 16.0844 18.2859 16.1706L19.0053 18.4943C19.0405 18.6077 18.9341 18.714 18.8207 18.6788L16.3177 17.9021C16.2353 17.8765 16.1486 17.9268 16.13 18.0111L15.5982 20.4117C15.5732 20.5245 15.4341 20.5661 15.3513 20.4855L13.5248 18.709C13.4642 18.6501 13.3667 18.6539 13.311 18.7174L11.6305 20.6327C11.5543 20.7195 11.4124 20.6891 11.3786 20.5786L10.6588 18.2275C10.6336 18.1449 10.5432 18.1016 10.4631 18.1336L8.02923 19.1056C7.91899 19.1496 7.80455 19.0521 7.83059 18.9363L8.36423 16.563C8.38402 16.475 8.32085 16.3899 8.23085 16.3835L5.62233 16.1966C5.50052 16.1879 5.44146 16.0434 5.52228 15.9519L7.17092 14.0842C7.23237 14.0146 7.21499 13.9062 7.13485 13.8593L4.94479 12.5772C4.83867 12.5151 4.85067 12.358 4.96499 12.3127L7.36582 11.3617C7.45128 11.3279 7.48531 11.225 7.43688 11.1469L6.1443 9.06184C6.08076 8.95934 6.16036 8.82805 6.28063 8.837L8.90248 9.03211C8.99044 9.03865 9.06445 8.96706 9.06082 8.87893L8.96072 6.44655C8.95592 6.32978 9.08233 6.25406 9.18301 6.31339L11.4158 7.62915C11.4889 7.67227 11.5833 7.64485 11.622 7.56923L12.7604 5.3435Z" fill="#F2EAE9"/>
<path d="M45.363 10.8172C46.8194 10.8172 48 9.63682 48 8.1808C48 6.72477 46.8194 5.54443 45.363 5.54443C43.9067 5.54443 42.7261 6.72477 42.7261 8.1808C42.7261 9.63682 43.9067 10.8172 45.363 10.8172Z" fill="#F2EAE9"/>
<path d="M33.4212 8.4107H35.7142V9.61853H35.767C36.2566 8.79805 37.1301 8.16772 38.3734 8.16772C39.5111 8.16772 40.4198 8.79805 40.8566 9.74178H40.8918C41.5047 8.76284 42.4486 8.16772 43.5863 8.16772C45.4742 8.16772 46.5414 9.39317 46.5414 11.3511V17.3867H44.1604V11.7525C44.1604 10.7383 43.6532 10.2136 42.7797 10.2136C41.7829 10.2136 41.1701 10.9848 41.1701 12.1715V17.3832H38.7891V11.749C38.7891 10.7348 38.2819 10.2101 37.4084 10.2101C36.4468 10.2101 35.7987 10.9813 35.7987 12.168V17.3797H33.4177V8.40718L33.4212 8.4107Z" fill="#F2EAE9"/>
<path d="M33.3991 19.9635C34.724 19.9635 35.7981 18.8897 35.7981 17.565C35.7981 16.2404 34.724 15.1665 33.3991 15.1665C32.0741 15.1665 31 16.2404 31 17.565C31 18.8897 32.0741 19.9635 33.3991 19.9635Z" fill="#F2EAE9"/>
<path d="M65.7604 5.3435C65.8128 5.24108 65.9571 5.23537 66.0174 5.33334L67.328 7.46221C67.3726 7.53453 67.4688 7.55441 67.5384 7.50565L69.6602 6.01766C69.7559 5.95057 69.8879 6.01607 69.8923 6.13285L69.9847 8.56554C69.988 8.65368 70.0674 8.7192 70.1546 8.70573L72.7529 8.30416C72.872 8.28574 72.9618 8.41034 72.9065 8.51753L71.7826 10.6981C71.7405 10.7798 71.7826 10.8797 71.8704 10.9067L74.3389 11.6651C74.4564 11.7012 74.4808 11.8569 74.3799 11.9272L72.2979 13.3782C72.2218 13.4313 72.213 13.5407 72.2798 13.6053L74.0708 15.3369C74.1585 15.4218 74.1111 15.5705 73.9903 15.5888L71.4047 15.9811C71.3155 15.9946 71.2593 16.0844 71.2859 16.1706L72.0053 18.4943C72.0405 18.6077 71.9341 18.714 71.8207 18.6788L69.3177 17.9021C69.2353 17.8765 69.1486 17.9268 69.13 18.0111L68.5982 20.4117C68.5732 20.5245 68.4341 20.5661 68.3513 20.4855L66.5248 18.709C66.4642 18.6501 66.3667 18.6539 66.311 18.7174L64.6305 20.6327C64.5543 20.7195 64.4124 20.6891 64.3786 20.5786L63.6588 18.2275C63.6336 18.1449 63.5432 18.1016 63.4631 18.1336L61.0292 19.1056C60.919 19.1496 60.8046 19.0521 60.8306 18.9363L61.3642 16.563C61.384 16.475 61.3208 16.3899 61.2308 16.3835L58.6223 16.1966C58.5005 16.1879 58.4415 16.0434 58.5223 15.9519L60.1709 14.0842C60.2324 14.0146 60.215 13.9062 60.1349 13.8593L57.9448 12.5772C57.8387 12.5151 57.8507 12.358 57.965 12.3127L60.3658 11.3617C60.4513 11.3279 60.4853 11.225 60.4369 11.1469L59.1443 9.06184C59.0808 8.95934 59.1604 8.82805 59.2806 8.837L61.9025 9.03211C61.9904 9.03865 62.0644 8.96706 62.0608 8.87893L61.9607 6.44655C61.9559 6.32978 62.0823 6.25406 62.183 6.31339L64.4158 7.62915C64.4889 7.67227 64.5833 7.64485 64.622 7.56923L65.7604 5.3435Z" fill="#F2EAE9"/>
<path d="M98.363 10.8172C99.8194 10.8172 101 9.63682 101 8.1808C101 6.72477 99.8194 5.54443 98.363 5.54443C96.9067 5.54443 95.7261 6.72477 95.7261 8.1808C95.7261 9.63682 96.9067 10.8172 98.363 10.8172Z" fill="#F2EAE9"/>
<path d="M86.4212 8.4107H88.7142V9.61853H88.767C89.2566 8.79805 90.1301 8.16772 91.3734 8.16772C92.5111 8.16772 93.4198 8.79805 93.8566 9.74178H93.8918C94.5047 8.76284 95.4486 8.16772 96.5863 8.16772C98.4742 8.16772 99.5414 9.39317 99.5414 11.3511V17.3867H97.1604V11.7525C97.1604 10.7383 96.6532 10.2136 95.7797 10.2136C94.7829 10.2136 94.1701 10.9848 94.1701 12.1715V17.3832H91.7891V11.749C91.7891 10.7348 91.2819 10.2101 90.4084 10.2101C89.4468 10.2101 88.7987 10.9813 88.7987 12.168V17.3797H86.4177V8.40718L86.4212 8.4107Z" fill="#F2EAE9"/>
<path d="M86.3991 19.9635C87.724 19.9635 88.7981 18.8897 88.7981 17.565C88.7981 16.2404 87.724 15.1665 86.3991 15.1665C85.0741 15.1665 84 16.2404 84 17.565C84 18.8897 85.0741 19.9635 86.3991 19.9635Z" fill="#F2EAE9"/>
<path d="M118.76 5.3435C118.813 5.24108 118.957 5.23537 119.017 5.33334L120.328 7.46221C120.373 7.53453 120.469 7.55441 120.538 7.50565L122.66 6.01766C122.756 5.95057 122.888 6.01607 122.892 6.13285L122.985 8.56554C122.988 8.65368 123.067 8.7192 123.155 8.70573L125.753 8.30416C125.872 8.28574 125.962 8.41034 125.907 8.51753L124.783 10.6981C124.741 10.7798 124.783 10.8797 124.87 10.9067L127.339 11.6651C127.456 11.7012 127.481 11.8569 127.38 11.9272L125.298 13.3782C125.222 13.4313 125.213 13.5407 125.28 13.6053L127.071 15.3369C127.159 15.4218 127.111 15.5705 126.99 15.5888L124.405 15.9811C124.316 15.9946 124.259 16.0844 124.286 16.1706L125.005 18.4943C125.04 18.6077 124.934 18.714 124.821 18.6788L122.318 17.9021C122.235 17.8765 122.149 17.9268 122.13 18.0111L121.598 20.4117C121.573 20.5245 121.434 20.5661 121.351 20.4855L119.525 18.709C119.464 18.6501 119.367 18.6539 119.311 18.7174L117.631 20.6327C117.554 20.7195 117.412 20.6891 117.379 20.5786L116.659 18.2275C116.634 18.1449 116.543 18.1016 116.463 18.1336L114.029 19.1056C113.919 19.1496 113.805 19.0521 113.831 18.9363L114.364 16.563C114.384 16.475 114.321 16.3899 114.231 16.3835L111.622 16.1966C111.501 16.1879 111.441 16.0434 111.522 15.9519L113.171 14.0842C113.232 14.0146 113.215 13.9062 113.135 13.8593L110.945 12.5772C110.839 12.5151 110.851 12.358 110.965 12.3127L113.366 11.3617C113.451 11.3279 113.485 11.225 113.437 11.1469L112.144 9.06184C112.081 8.95934 112.16 8.82805 112.281 8.837L114.902 9.03211C114.99 9.03865 115.064 8.96706 115.061 8.87893L114.961 6.44655C114.956 6.32978 115.082 6.25406 115.183 6.31339L117.416 7.62915C117.489 7.67227 117.583 7.64485 117.622 7.56923L118.76 5.3435Z" fill="#F2EAE9"/>
<path d="M151.363 10.8172C152.819 10.8172 154 9.63682 154 8.1808C154 6.72477 152.819 5.54443 151.363 5.54443C149.907 5.54443 148.726 6.72477 148.726 8.1808C148.726 9.63682 149.907 10.8172 151.363 10.8172Z" fill="#F2EAE9"/>
<path d="M139.421 8.4107H141.714V9.61853H141.767C142.257 8.79805 143.13 8.16772 144.373 8.16772C145.511 8.16772 146.42 8.79805 146.857 9.74178H146.892C147.505 8.76284 148.449 8.16772 149.586 8.16772C151.474 8.16772 152.541 9.39317 152.541 11.3511V17.3867H150.16V11.7525C150.16 10.7383 149.653 10.2136 148.78 10.2136C147.783 10.2136 147.17 10.9848 147.17 12.1715V17.3832H144.789V11.749C144.789 10.7348 144.282 10.2101 143.408 10.2101C142.447 10.2101 141.799 10.9813 141.799 12.168V17.3797H139.418V8.40718L139.421 8.4107Z" fill="#F2EAE9"/>
<path d="M139.399 19.9635C140.724 19.9635 141.798 18.8897 141.798 17.565C141.798 16.2404 140.724 15.1665 139.399 15.1665C138.074 15.1665 137 16.2404 137 17.565C137 18.8897 138.074 19.9635 139.399 19.9635Z" fill="#F2EAE9"/>
<path d="M171.76 5.3435C171.813 5.24108 171.957 5.23537 172.017 5.33334L173.328 7.46221C173.373 7.53453 173.469 7.55441 173.538 7.50565L175.66 6.01766C175.756 5.95057 175.888 6.01607 175.892 6.13285L175.985 8.56554C175.988 8.65368 176.067 8.7192 176.155 8.70573L178.753 8.30416C178.872 8.28574 178.962 8.41034 178.907 8.51753L177.783 10.6981C177.741 10.7798 177.783 10.8797 177.87 10.9067L180.339 11.6651C180.456 11.7012 180.481 11.8569 180.38 11.9272L178.298 13.3782C178.222 13.4313 178.213 13.5407 178.28 13.6053L180.071 15.3369C180.159 15.4218 180.111 15.5705 179.99 15.5888L177.405 15.9811C177.316 15.9946 177.259 16.0844 177.286 16.1706L178.005 18.4943C178.04 18.6077 177.934 18.714 177.821 18.6788L175.318 17.9021C175.235 17.8765 175.149 17.9268 175.13 18.0111L174.598 20.4117C174.573 20.5245 174.434 20.5661 174.351 20.4855L172.525 18.709C172.464 18.6501 172.367 18.6539 172.311 18.7174L170.631 20.6327C170.554 20.7195 170.412 20.6891 170.379 20.5786L169.659 18.2275C169.634 18.1449 169.543 18.1016 169.463 18.1336L167.029 19.1056C166.919 19.1496 166.805 19.0521 166.831 18.9363L167.364 16.563C167.384 16.475 167.321 16.3899 167.231 16.3835L164.622 16.1966C164.501 16.1879 164.441 16.0434 164.522 15.9519L166.171 14.0842C166.232 14.0146 166.215 13.9062 166.135 13.8593L163.945 12.5772C163.839 12.5151 163.851 12.358 163.965 12.3127L166.366 11.3617C166.451 11.3279 166.485 11.225 166.437 11.1469L165.144 9.06184C165.081 8.95934 165.16 8.82805 165.281 8.837L167.902 9.03211C167.99 9.03865 168.064 8.96706 168.061 8.87893L167.961 6.44655C167.956 6.32978 168.082 6.25406 168.183 6.31339L170.416 7.62915C170.489 7.67227 170.583 7.64485 170.622 7.56923L171.76 5.3435Z" fill="#F2EAE9"/>
<path d="M204.363 10.8172C205.819 10.8172 207 9.63682 207 8.1808C207 6.72477 205.819 5.54443 204.363 5.54443C202.907 5.54443 201.726 6.72477 201.726 8.1808C201.726 9.63682 202.907 10.8172 204.363 10.8172Z" fill="#F2EAE9"/>
<path d="M192.421 8.4107H194.714V9.61853H194.767C195.257 8.79805 196.13 8.16772 197.373 8.16772C198.511 8.16772 199.42 8.79805 199.857 9.74178H199.892C200.505 8.76284 201.449 8.16772 202.586 8.16772C204.474 8.16772 205.541 9.39317 205.541 11.3511V17.3867H203.16V11.7525C203.16 10.7383 202.653 10.2136 201.78 10.2136C200.783 10.2136 200.17 10.9848 200.17 12.1715V17.3832H197.789V11.749C197.789 10.7348 197.282 10.2101 196.408 10.2101C195.447 10.2101 194.799 10.9813 194.799 12.168V17.3797H192.418V8.40718L192.421 8.4107Z" fill="#F2EAE9"/>
<path d="M192.399 19.9635C193.724 19.9635 194.798 18.8897 194.798 17.565C194.798 16.2404 193.724 15.1665 192.399 15.1665C191.074 15.1665 190 16.2404 190 17.565C190 18.8897 191.074 19.9635 192.399 19.9635Z" fill="#F2EAE9"/>
</svg>
